<?xml version="1.0" encoding="UTF-8"?>
<svg width="600" height="600" version="1.1" xmlns="http://www.w3.org/2000/svg">
  <path d="m149.85 155.06h-0.20346v0.20345h-0.20345s-0.19405 0-0.19405 0.20346c-0.20345 0-0.40678 0.20345-0.40678 0.40678l-0.20345 0.19404v1.4148l0.20345 0.20345c1.4052 2.228 2.4221 4.456 3.4206 6.6747 2.8196 6.8688 3.6332 14.551 2.4221 22.039-1.4144 7.479-5.0384 14.551-10.678 19.812-5.4359 5.0569-11.279 7.8858-16.511 9.9011h-0.20345c-5.2325 2.228-10.068 3.6424-13.895 6.0646-3.023 1.8212-5.6393 4.0492-7.6546 6.6747-2.0154 2.8381-3.4206 5.8612-3.6239 9.0968-0.20345 3.0323 0.20345 6.0646 1.812 8.4959 1.6086 2.2187 3.8273 4.2433 6.4436 4.6501 1.812 0.6009 3.4206 0.40676 5.2325 0 1.812-0.40679 3.6332-1.4144 5.0384-2.6348 0.20345 0 0.20345-0.19404 0.20345-0.19404 2.0154-1.4144 4.0215-3.8458 6.2402-6.2679-2.0154 2.8289-3.624 5.6578-5.4359 7.6824-1.4144 1.8212-3.2264 3.2356-5.4359 4.2433-2.0154 1.0077-4.4375 1.6178-6.8504 1.6178-3.8273-0.20345-7.858-2.228-10.678-5.667-3.0138-3.2264-4.8258-7.8765-5.0291-12.73-0.20345-5.0569 1.0077-10.114 3.4206-14.56 2.4129-4.4467 5.8427-8.4867 9.8734-11.722 4.8258-3.6424 10.271-6.6747 14.699-9.3002 4.4282-2.8289 8.2556-5.2602 10.068-8.6993 0.20345 0 0.20345 0 0.20345-0.19404 0.40676-0.61017 0.20345-1.8212-0.60093-2.228-0.80428-0.40678-2.0153-0.20345-2.4221 0.61014-1.4052 2.2188-4.835 4.4467-9.2632 7.0722v-0.20345c-4.4282 2.4314-9.8734 5.0569-15.503 9.0968-4.6409 3.439-8.6623 7.8858-11.685 12.943-3.023 5.0476-4.6316 10.918-4.6316 16.983s2.0153 12.129 5.6393 16.779c3.8273 4.8535 9.2632 8.0892 14.903 8.6901h0.20345c3.6239 0.40675 7.0445-0.19406 10.271-1.6178 3.023-1.2111 5.8427-3.2357 8.0522-5.4544 2.8196-3.0323 5.0384-6.2679 7.0538-9.3002 2.2188-3.0323 4.4282-5.8612 7.6547-7.479 3.023-1.6178 6.647-2.228 10.068-1.6178 3.6239 0.80428 7.0538 2.6255 9.67 5.251 2.6163 2.6348 4.835 6.0738 5.8427 9.707 0.19405 0.81353 0.39752 1.8212 0.6009 2.4314v0.20346c0.39752 3.023 0 6.0645-0.6009 9.0876h0.19405c-1.812 7.4883-6.0368 14.357-11.473 19.414-5.4452 5.0569-11.889 8.8934-18.129 12.129-4.6316 2.2279-9.0691 4.2433-13.294 6.8781-4.0307 2.4221-7.6546 5.4544-10.271 9.0968l-0.20345 0.20345c-3.4206 4.8536-5.0384 11.316-4.2341 17.186 0.81354 6.0646 4.0307 11.722 8.6623 15.365v0.19401c0.81354 0.61018 2.0153 0.61018 2.4221-0.19401 0.6009-0.61018 0.6009-1.8212-0.20345-2.4314-3.8273-3.439-6.2402-8.4867-6.647-13.34-0.40676-4.4468 1.0077-9.3002 3.6239-12.943-2.0154 3.8458-2.8196 8.0891-2.2095 11.926v0.20345c0.19404 0.81357 0.99845 1.6178 2.0061 1.4145 0.81354 0 1.4144-1.0077 1.4144-1.812v-0.20346c-0.20345-3.439 0.80431-7.2756 2.8197-9.9104v-0.20346c1.4052-2.0154 4.2341-4.2434 7.6546-6.4714 3.4206-2.0153 7.858-4.0399 12.684-6.4621 6.8503-3.2356 13.904-7.6824 20.348-13.553 6.647-6.0646 12.083-14.348 14.496-24.462 1.2111-5.0476 1.2111-10.511 0.20345-15.966-1.2111-5.2603-3.6239-10.511-7.4513-14.967-3.8273-4.4467-8.8565-7.8858-14.699-9.5036-6.0461-1.812-12.49-1.4144-18.536 1.2203-6.0368 2.8289-10.271 6.6747-13.091 10.308h-0.20345c-2.8197 3.2356-4.8258 5.8612-6.0368 6.6747v0.19405c-1.2111 0.81354-2.2187 1.4237-3.023 1.6178-1.0077 0.40678-2.0154 0.40678-2.4129 0.20345h-0.20345c-0.40679 0-2.0154-1.0077-2.8196-2.0154v-0.20345c-0.60091-0.81354-1.2111-3.0323-1.2111-5.0569 0.20345-1.8212 1.2111-4.2434 2.6163-6.268 1.211-2.0154 3.4298-4.04 6.0461-5.6578 3.023-2.0246 7.6547-3.6424 13.091-5.8612v-0.20345c5.6393-2.0246 11.889-5.4636 17.722-10.918h0.20345c6.0461-6.0646 10.068-13.95 11.482-22.243 1.211-8.2833 0.20345-16.576-3.023-24.055-1.0077-2.4221-2.4129-4.8535-3.8273-7.0722v-0.20345h-0.20345v-0.20345h-0.19405s0-0.20345-0.20345-0.20345-0.20345-0.20345-0.20345-0.20345h-0.61024z"/>
  <path d="m128.3 362.69c-4.835 4.04-9.67 6.0645-10.678 4.8535-1.0077-1.4144 2.0154-5.667 6.8504-9.707 3.6239-2.8289 7.2479-4.8535 9.2632-5.0569 0.61016-0.19408 1.0077 0 1.4144 0.40679 1.0077 1.211-2.0153 5.4636-6.8504 9.5036m106.95-43.876c-9.0691 4.0492-13.294 13.747-12.092 19.617 1.6178 9.3002 8.2648 15.966 17.528 18.795 9.2632 3.0415 21.947 5.667 36.045 4.0492-20.939 17.787-21.346 30.323-40.483 48.313-8.0522 7.6917-14.699 29.722-22.761 36.6-2.0061 1.8212-14.292 22.234-22.548 37.598 52.566-64.288 107.95-127.16 168.98-163.96 68.883-41.25 99.695-43.062 116.01-54.997 1.6086-1.0077 3.8273-2.2188 3.8273-3.4298 0-5.4636-23.565-8.2925-29.408-9.707-0.6009-0.20345 1.6086-4.8535 4.2341-6.8781 1.812-1.4144 5.2325-2.6255 8.2556-2.2188-1.2111-5.8612-5.0384-11.926-5.0384-12.129 0.20345 0 6.0461 2.6255 9.0691 1.2111-2.8196-2.6348-5.6486-7.479-4.835-8.2925 0.20346-0.20345 5.0292 3.2357 8.6531 2.4314-10.262-10.114-16.511-30.73-23.759-45.493-4.2341-8.2833-6.647-38.209-11.685-43.469-5.6393-5.4544-9.4666-13.95-14.098-18.591-8.8565-9.1061-27.189-9.3094-37.866-14.764-4.6316-2.228-9.8642-4.2433-15.106-6.8688-4.6316-2.4314-64.649-4.8535-72.303-5.2603-4.6316-0.40676-12.286-0.61014-16.511 1.0077-11.084 4.6501-25.58 15.365-24.175 29.925-4.6316 14.154-17.926 23.047-23.962 35.176-4.835 9.9104-4.835 19.811-9.8734 29.722-1.4052 2.6255 1.4144 7.2756 0 9.9011-4.0215 8.2925-8.0522 18 5.6393 23.454-4.835 9.0968-11.075 15.161-15.707 22.446-6.4436 10.104-10.271 18.998-8.0522 24.868 2.2095 5.6578 17.916 4.8442 27.79 3.8366-3.8273 13.34-3.6239 22.234 2.4129 24.665l-78.146 72.377-16.308-19.211c-2.8196-3.4299-10.271 1.0169-15.919 5.8704-5.8334 4.6502-12.277 10.715-9.0598 15.161 0 0 8.459 10.308 14.708 17.389 6.4436 7.2756 20.542 16.576 34.039 0.19408 12.277-14.958 51.752-59.841 67.061-77.231-0.19404 3.2356 1.2111 5.667 5.4452 7.8858"/>
  <path d="m376.23 321.65c-75.733 43.866-138.57 113.21-190.13 171.84-0.20345 0.2035-0.40678 0.6102-0.40678 0.8136 29.001 14.551 72.303 24.055 107.15 24.055 91.847 0 178.45-62.06 209.87-143.34 2.0061-52.769-8.8657-100.88-19.738-113.01-4.4375 13.747-50.957 27.29-106.75 59.638"/>
  <path d="m245.92 558.42c0-0.4068 0.20345-0.8136 0.39752-1.4145 0-0.8135 0.20345-1.4144 0.20345-2.228 0.20346-0.8043 0.20346-1.4144 0.20346-1.8212-0.20346-0.3975-0.60091-0.8043-1.6086-1.4144-0.80431-0.3976-2.0154-0.8043-3.023-1.0077-2.6163-0.6102-5.2326-0.8043-7.4513-0.6102-2.2188 0.2035-4.4282 1.0169-6.4436 2.228-1.812 1.2111-3.6239 2.8289-5.0384 5.2602-1.4052 2.2188-2.4129 5.0477-3.4206 8.4868-0.61016 2.8289-1.0077 5.4544-0.80431 7.8857 0 2.6256 0.39753 4.6502 1.2018 6.6747 0.61015 1.812 1.6178 3.4298 2.8196 5.0477 1.4144 1.4145 2.8196 2.6255 4.4375 3.6424 1.812 1.0077 3.624 1.6178 5.6393 2.228 1.0077 0.1941 1.812 0.3975 2.6163 0.3975 1.0077 0.2035 1.4144 0 1.6086-0.2034 0.40679-0.601 1.0077-2.2188 1.6178-4.6501zm15.106-6.0646v1.2111c-0.20345 0.6102-0.40678 1.0076-0.60092 1.211-0.61014-0.2034-1.6178-0.4068-2.8196-0.4068-1.0077-0.194-1.8212 0-2.0154 0.2035-0.40676 1.0169-1.2111 2.8381-1.812 5.8704l-6.8503 27.494c-0.61017 2.8289-1.0077 4.8535-1.0077 5.8611 0 0.2035 0.39752 0.601 1.0077 1.0078 0.6009 0.2034 1.2111 0.6101 1.812 0.8135 0.60091 0.2034 1.2111 0.4067 1.6086 0.4067 0 0.1941 0 0.601-0.19405 1.2111 0 0.6009-0.20346 1.0077-0.40679 1.0077-4.0307-1.0077-6.8504-1.8212-8.8657-2.4221-1.0077-0.2035-2.6163-0.6102-4.8258-1.2111-2.4221-0.4068-4.2341-0.8136-5.6485-1.2203-3.8181-0.8043-7.0445-2.2187-10.068-4.2433-2.8196-1.8213-5.0384-4.04-6.8504-6.4714-1.6086-2.4221-2.8197-5.2602-3.2172-8.2832-0.61016-3.0416-0.40678-6.268 0.3975-9.7071 0.81354-3.439 2.2188-6.4713 4.0307-9.0968 1.812-2.6347 4.0307-4.6501 6.647-6.0645 2.8197-1.6179 5.8427-2.6256 9.4666-2.8381 3.624-0.3976 7.4513 0 11.685 1.0168z"/>
  <path d="m201.41 535.12c0 0.2035 0 0.6102-0.40676 1.0078-0.19405 0.6101-0.39752 0.8135-0.60093 1.0169-0.80428-0.4068-1.6086-0.6102-2.6162-1.0169-1.2111-0.3976-1.812-0.3976-2.2188-0.1941-0.6009 0.8043-1.812 2.6255-3.023 5.251l-12.887 25.275c-1.4144 2.6255-2.0153 4.4467-2.2187 5.4544 0 0.2034 0 0.6102 0.40676 0.8135 0.20345 0.4068 0.6009 0.8043 1.0077 1.0077 0.39753 0.4068 0.80428 0.6101 1.2111 0.8135 0.39752 0.3975 0.80428 0.6009 0.99843 0.6009 0 0.2035-0.19405 0.6102-0.39753 1.2111-0.20345 0.4068-0.40678 0.8136-0.6009 1.0169-3.4298-2.0246-6.0461-3.6424-8.0614-4.6501-1.4052-0.6101-4.835-2.2279-10.068-4.8535-5.2418-2.4314-8.8657-4.2434-10.678-5.0569 0.40677-1.4144 1.0077-3.439 1.6178-5.8612 0.60091-2.6254 0.99843-3.8457 0.99843-4.2525 0.40676 0 0.81354 0 1.6178 0.4068 0.39752 0.2034 0.6009 0.6101 0.6009 1.0169-0.40675 2.4221-0.20345 4.4467 0.40679 6.0645 0.6009 1.4145 1.8027 2.6255 3.6239 3.6424l5.2325 2.6256c2.4221 1.211 3.8273 1.6178 4.2341 1.211 0.20345 0 0.20345-0.2034 0.39752-0.4067 0.20345-0.1941 0.20345-0.3975 0.40676-0.3975 0-0.2035 0.20345-0.4068 0.39752-0.8136 0.20345-0.2035 0.20345-0.3975 0.40679-0.6102 0-0.194 0.20345-0.6009 0.40675-1.0076 0.19406-0.1941 0.19406-0.601 0.39753-0.8044l5.8427-11.528s-0.20345-0.4068-0.61017-0.8043c-0.39752-0.2035-0.99842-0.6102-1.812-1.017l-3.4206-1.8212-1.2111-0.6008c-0.39752-0.2035-0.80428-0.4068-1.2018-0.4068-0.40678-0.2035-0.61016-0.2035-1.0077-0.3976-0.20345 0-0.40675-0.2034-0.80428-0.2034h-0.61016c-0.20345 0.2034-0.60091 0.2034-0.80429 0.3975-0.20345 0-0.39752 0.2035-0.6009 0.4068-0.20345 0-0.40678 0.2035-0.61016 0.4067-0.39752 0.3976-0.6009 0.6009-0.80431 0.8043-0.19404 0.2035-0.39752 0.6102-0.80428 1.0077-0.20345 0.2034-0.6009 0.2034-1.2111 0-0.39753-0.194-0.80428-0.6009-0.80428-1.0077l6.0461-11.926c0.20345-0.2034 0.60091 0 1.2111 0.2035 0.39751 0.2034 0.80429 0.6008 0.60091 1.0076-0.20345 1.2111-0.40678 2.228-0.40678 2.829v1.4144c0.20345 0.4067 0.20345 0.6102 0.40678 0.8135 0.40676 0.6009 2.2187 1.8212 5.6393 3.4298 3.023 1.6271 4.6316 2.0246 4.835 1.6271l5.4359-10.918c1.4144-2.6348 2.0153-4.456 2.0153-4.8536 0-0.6101-0.40676-1.0169-1.0077-1.6177-0.6009-0.4068-1.6086-1.0077-2.8196-1.6179l-3.8273-1.8212c-3.023-1.6179-5.6393-2.2187-7.6546-1.812-2.2095 0.6009-4.4282 2.0153-6.8504 4.4375-0.19405 0.2035-0.6009 0.2035-0.99843 0-0.40678-0.194-0.61016-0.3975-1.0169-0.8043-0.39753-0.2035-0.60091-0.4067-0.60091-0.6101 0.40679-0.1941 1.0077-1.0078 2.2188-2.0154 1.2111-1.2203 2.0153-2.0246 2.6162-2.6347 0.61016-0.601 1.4145-1.2111 2.2188-2.0155 0.80428-1.0169 1.4052-1.6177 1.812-2.2279 1.0077 0.6102 4.2248 2.0246 9.2632 4.8535 5.0384 2.6255 9.2632 4.6501 12.286 6.268 1.4052 0.8135 3.2172 1.6177 5.0384 2.422 1.812 1.017 3.0138 1.6179 3.4206 1.8213"/>
  <path d="m127.09 545.02c0 0.2035-0.20346 0.6009-0.60091 1.0077-0.40678 0.4067-0.80431 0.8135-1.0077 0.8135-2.6162-2.6347-5.0384-4.8535-6.8503-6.2679-1.812-1.6178-4.2249-3.439-7.2479-5.6578 0-0.2126 0.19405-0.6102 0.6009-1.0169 0.40678-0.3975 0.61016-0.6102 1.0077-0.8043 0.40678 0.4068 1.2111 1.0077 2.2188 1.6086 1.0077 0.6101 1.812 0.8135 2.2095 0.6101 0.61014-0.6101 2.0154-2.0246 4.0307-4.4467l9.8734-11.722c1.8027-2.0247 3.2172-4.0492 4.2248-5.8612 1.0077-1.8212 1.6086-3.6425 1.812-5.4636 0.8043-4.04-0.6009-7.6825-4.2341-10.715-0.99846-0.8043-2.2095-1.6178-3.2172-2.0246-1.2111-0.601-2.4129-0.8043-3.8273-1.0077-1.4052 0-2.8196 0.2034-4.0215 0.6009-1.4144 0.4068-3.023 1.2203-4.6409 2.4314-1.6086 1.211-3.0138 2.6255-4.6316 4.4467l-10.068 12.129c-2.2188 2.6255-3.4206 4.4468-3.8273 5.6578 0 0.4068 0.20345 0.8135 0.6009 1.6178 0.40679 0.6102 0.80431 1.2203 1.2111 1.8212 0.60091 0.6102 1.0077 0.8136 1.2111 1.2203 0 0.1941-0.20345 0.601-0.61015 1.0077-0.19406 0.4068-0.60091 0.6102-0.80429 0.8043-0.20345-0.3975-0.80428-0.8043-1.4052-1.6178-0.80428-0.6009-1.211-1.2111-1.6086-1.4145-0.40678-0.4067-0.81353-0.8042-1.4145-1.211-0.60091-0.6102-1.0077-1.0077-1.6086-1.6178-1.0077-0.8043-2.2188-1.6179-3.624-2.6256-1.4144-1.0169-2.4221-1.8212-2.8289-2.2279 0-0.2035 0.20346-0.6009 0.40676-1.0077 0.40678-0.4068 0.61016-0.6102 1.0077-0.6102 0.6009 0.4068 1.4144 1.017 2.6163 1.6179 1.2111 0.6101 2.2187 1.0169 2.6163 0.6101 1.2111-0.6101 3.023-2.0246 5.0384-4.4467l10.474-12.739c1.812-2.2187 3.8273-3.8458 5.6393-5.2602 2.0154-1.4145 4.0307-2.2188 5.8427-2.6256 1.812-0.6008 3.8273-0.6008 5.6393-0.3975 2.0154 0.1941 3.8273 0.6009 5.6393 1.6086 1.6086 0.8135 3.4206 1.8212 5.0292 3.2357 2.2187 1.8212 3.8273 3.8458 5.2418 6.2679 1.2111 2.228 1.812 4.4468 1.812 6.8781 0.20346 4.6501-1.6086 9.3002-5.8427 14.144l-11.482 13.756c-0.19405 0.2035-0.19405 0.3976-0.6009 0.601-0.20346 0.4068-0.40676 0.6102-0.40676 0.8135-0.19405 0-0.39753 0.2034-0.60093 0.3975-0.20345 0.4068-0.20345 0.4068-0.39753 0.6102 0 0.2035-0.20345 0.4068-0.40676 0.6101-0.20345 0.1941-0.20345 0.3975-0.40677 0.3975 0 0.2035-0.19406 0.4068-0.19406 0.6102-0.20345 0.2035-0.20345 0.2035-0.40678 0.4068v0.4068c-0.20345 0.3975 0 1.0076 0.80431 2.0153 0.80428 0.8136 1.4144 1.6179 2.0154 2.0246"/>
  <path d="m81.98 491.32c-1.6086 0.601-5.2418 2.6256-11.279 6.0646-0.20345-0.2034-0.40678-0.2034-0.40678-0.4068-0.19405-0.2034-0.19405-0.4067-0.39753-0.6009 0-0.2034-0.20345-0.6101-0.40676-1.2203 0-0.6008-0.39752-1.211-0.6009-2.0153-0.40678-0.6102-0.80431-1.4145-1.4144-2.228l-15.3-20.616c-0.40676-0.6101-1.0077-1.2203-1.6178-1.8212-0.6009-0.6102-1.2111-1.0169-1.812-1.2203-0.60091-0.3975-0.80431-0.6009-1.0077-0.8043-0.20345-0.2035-0.39752-0.4068-0.39752-0.4068-0.20345-0.2034-0.20345-0.4068-0.20345-0.6009 5.2325-5.0569 8.2556-8.0891 8.8565-8.9027 0.20345 0 0.40678 0 0.81354 0.2035 0.39752 0.2034 0.6009 0.6101 0.80431 0.8135 0.19405 0.2035 0.19405 0.6101 0.19405 0.8043-0.99843 1.0077-1.6086 1.8212-2.2095 2.8289-0.6009 1.0169-1.0077 2.0246-1.2111 3.0415-0.39753 1.0077-0.39753 1.812-0.20346 2.8289 0 0.8043 0.40679 1.6086 0.81355 2.4221l4.6316 6.268 27.79-20.819c2.6163-2.0246 4.0307-3.2449 4.6316-4.0492 0.20345-0.20346 0-1.0077-0.39752-2.0246-0.61014-1.0077-1.0077-1.8212-1.4144-2.4222 0-0.20346 0.20345-0.61012 0.80431-0.81351 0.40676-0.39753 0.80428-0.60093 1.0077-0.60093 2.0154 3.2357 3.8273 5.8612 5.2418 7.6824 1.4052 2.0246 3.2172 4.2433 5.8334 7.0723-0.19404 0.4067-0.39752 0.6101-0.80428 1.0169-0.60093 0.3975-0.80431 0.3975-1.2018 0.3975-0.40675-0.3975-1.0077-1.211-1.812-2.0154-1.0077-0.8135-1.6178-1.2203-2.0154-1.0077-1.0077 0.3976-2.6255 1.4053-5.0384 3.2265l-27.79 20.828 4.8258 6.2679c1.0077 1.4145 2.6255 2.2188 4.6316 2.2188 2.2187 0 4.2341-0.3975 6.647-1.6178 0.20345 0 0.61016 0 0.81354 0.4067 0.19405 0.2034 0.19405 0.6102 0.39752 1.0077 0.20345 0.4068 0.20345 0.6102 0.20345 0.8136"/>
  <path d="m65.86 427.59c-0.20345 0-0.40676-0.20345-0.80429-0.40678-0.40678-0.40672-0.8043-0.60087-0.8043-1.0076-0.20346-0.40679-0.20346-0.81357 0.19405-1.0077 0.61016-0.40672 1.2111-1.0169 1.8212-1.6271 0.60093-0.60087 1.4052-1.4052 2.0061-2.4221 0.61015-1.0077 1.2111-2.0154 1.6178-3.2356 0.39753-1.2111 0.60091-2.4222 0.39753-3.8366 0-1.4144-0.39753-2.8289-1.0077-4.04-0.19405-0.61011-0.60091-1.2203-1.0077-1.6271-0.39754-0.60093-0.80429-1.0076-1.2018-1.4144-0.61017-0.39754-1.0077-0.80432-1.6178-1.0076-0.60093-0.20346-1.2018-0.40678-1.812-0.61018-0.80428 0-1.4052 0-2.2095 0.20346-0.80429 0.20346-1.6178 0.40678-2.2187 0.81351-0.6009 0.20345-1.0077 0.40678-1.6086 0.80432-0.40678 0.40678-0.80431 0.81357-1.0077 1.211-0.40676 0.40678-0.80429 1.017-1.0077 1.4145-0.20345 0.40672-0.40678 0.8135-0.61016 1.6271-0.19405 0.60087-0.39752 1.0076-0.39752 1.6086-0.20345 0.40672-0.40678 1.0169-0.40678 1.6178-0.19406 0.8135-0.19406 1.4237-0.19406 1.8212-0.20345 0.40672-0.20345 1.0169-0.20345 1.8212-0.20345 0.81357-0.20345 1.2204-0.20345 1.6179v0.61011c-0.20345 1.0077-0.20345 1.6178-0.40676 2.0154 0 0.61018-0.19404 1.2203-0.19404 2.0246-0.20345 1.0076-0.40676 1.6178-0.40676 2.2188-0.20345 0.40678-0.39753 1.0169-0.60093 1.8212-0.20345 0.81351-0.40676 1.4144-0.61014 2.0246-0.39752 0.40672-0.60092 1.0076-1.0077 1.6178-0.39753 0.61011-0.80429 1.211-1.2018 1.6178-0.61016 0.40679-1.0077 0.81357-1.6178 1.2111-0.6009 0.61017-1.2018 0.8135-2.0061 1.211-1.6178 0.81357-3.2264 1.2204-5.0384 1.0169-1.812 0-3.4206-0.40672-5.0384-1.211-1.6086-0.81351-3.023-1.8212-4.2249-3.0415-1.4144-1.4144-2.4221-2.8289-3.2264-4.4467-0.40678-1.0077-0.8043-1.8212-1.0077-2.8289-0.39753-1.0076-0.60091-1.8212-0.80429-2.4221-0.20345-0.61018-0.39752-1.6178-0.6009-2.8289-0.20345-1.2203-0.40678-2.4313-0.61016-3.0323 2.2187-1.6178 5.4452-3.2357 9.4666-5.4637 0.40676-0.20346 0.61016 0 0.80429 0.40678 0.61016 1.211 0.61016 1.8212 0.40678 2.2188-0.80431 0.40672-1.4052 0.8135-2.0154 1.6178-0.60091 0.61011-1.211 1.4237-1.812 2.2279-0.6009 1.017-1.0077 1.8212-1.4052 2.8289-0.40678 1.0169-0.61016 2.0246-0.61016 3.0323s0.40678 2.0246 0.80428 3.0323c1.0077 2.0246 2.2188 3.2357 3.8273 3.8458 1.6178 0.60093 3.4298 0.39754 5.2418-0.40678 0.6009-0.20339 1.0077-0.61011 1.4052-0.81351 0.40679-0.39753 0.61016-0.80432 1.0077-1.0077 0.20345-0.40672 0.60091-0.81351 0.80428-1.211 0.20345-0.61012 0.40678-1.0169 0.61016-1.4144 0.20345-0.20345 0.39753-0.81357 0.60091-1.4144 0.20345-0.61018 0.20345-1.2111 0.40678-1.6178 0-0.20345 0.19405-0.81357 0.39753-1.6178 0-0.61017 0.20344-1.2111 0.20344-1.6178 0-0.20346 0.20345-0.81357 0.20345-1.6179l0.20345-1.6178c0-0.40672 0.19406-1.0076 0.19406-1.8212 0.20345-0.60087 0.20345-1.211 0.20345-1.6178 0-0.40672 0.20345-1.0076 0.40678-1.6178 0-0.80426 0.19405-1.211 0.19405-1.6178 0.20345-0.60087 0.20345-1.0076 0.40678-1.8212 0.20345-0.60093 0.40676-1.211 0.6009-1.6086 0.20345-0.40678 0.40679-0.81351 0.81354-1.4237 0.19406-0.60093 0.39753-1.0077 0.80431-1.6178 0.39752-0.39754 0.80428-0.80432 1.2018-1.211 0.40676-0.39754 1.0077-0.80432 1.4144-1.2111 0.6009-0.40678 1.2111-0.60086 1.812-1.0076 1.6086-0.81357 3.4206-1.2203 5.2325-1.0076 2.0154 0 3.6332 0.39748 5.2418 1.2018 1.6086 0.8135 3.2172 2.0246 4.4282 3.2356 1.4144 1.4237 2.4221 3.0415 3.2264 4.6501 0.6009 1.4145 1.2018 2.8381 1.812 4.6502 0.60091 1.8212 0.80429 3.0415 1.2111 4.0492 0.19405 0.80432 0.39753 2.2188 0.80428 4.2434-1.2111 1.0169-3.023 2.2187-5.2418 3.6424-2.0154 1.4144-3.624 2.2188-4.4282 2.6255"/>
  <path d="m36.46 384.73c-3.2264 0.8135-6.4436 0.8135-9.67 0.40672-3.2172-0.61011-6.2402-1.6178-8.8565-3.2356s-4.835-3.6424-6.8504-6.2679-3.4206-5.6578-4.0307-8.8935c-1.4052-5.4637-2.0154-10.317-2.0154-14.967 0 0 0.80428-0.39753 2.4221-1.2111 1.4052-0.60087 3.0138-1.4144 4.6316-2.0154 1.6086-0.8135 2.4129-1.2203 2.6162-1.2203 0.40679 0 0.61016 0 1.0077 0.40679 0.20345 0.20346 0.40675 0.61018 0.60091 1.0169 0 0.39753 0 0.80432-0.19406 1.0077-0.40675 0.20346-0.80428 0.40672-1.2111 0.60087-0.40676 0.20345-0.80428 0.61017-1.4144 1.2204-0.60091 0.39747-1.2018 1.0076-1.6086 1.4144-0.60091 0.60093-1.0077 1.4144-1.4144 2.2188-0.39752 0.80426-0.80428 1.8212-0.99843 2.6255-0.20345 1.0169-0.40675 2.228-0.40675 3.439 0 1.4144 0.20345 2.8289 0.6009 4.2434 0.40676 1.6271 1.0077 3.0415 1.8212 4.456 0.80431 1.211 1.812 2.4222 3.0138 3.2356 1.2111 0.80432 2.4221 1.6086 3.8273 2.2188 1.4145 0.61017 2.8196 1.0076 4.4375 1.211 1.6086 0.20346 3.2172 0.20346 4.8258 0.20346 1.6178 0 3.2264-0.40673 4.835-0.80426 2.2188-0.40679 4.4375-1.2204 6.2495-2.0246 2.0154-1.0077 3.8273-2.0246 5.4359-3.439 1.812-1.211 3.023-2.6255 4.2248-4.2434 1.0077-1.6178 1.8212-3.439 2.2187-5.4544 0.39754-2.0246 0.20346-4.0492-0.20344-6.2679-0.80431-3.6424-2.6163-6.4713-5.2325-8.2925-0.80431-0.61018-2.0154-1.211-3.4206-1.6178-1.4145-0.40678-2.6255-0.61018-3.4298-0.81357-1.0077 0-1.812-0.19402-2.4129-0.19402-0.20345-0.40678-0.20345-0.81356 0-1.4237 0-0.39754 0-0.80426 0.20345-1.0076 0.39753 0 1.4052-0.20346 3.0138-0.20346h4.835c1.6086 0 2.6162 0.20346 3.023 0.40679 1.4052 2.0245 2.8196 4.2433 3.8273 6.4713 1.2111 2.228 2.0154 4.8535 2.8197 7.8857 0.80428 3.2357 0.80428 6.6655 0.40676 9.6978-0.40676 3.2356-1.6178 6.0645-3.0323 8.6993-1.6086 2.6255-3.6239 4.8535-6.0368 6.6654-2.6162 1.8212-5.4359 3.0415-8.4589 3.8458"/>
  <path d="m47.33 322.05c-0.20345 0.20346-0.6009 0.20346-1.2111 0.20346-0.6009 0-1.0077 0-1.2018-0.20346 0-0.61017-0.20345-1.6178-0.40677-2.8289-0.20346-1.211-0.60091-1.8212-0.80429-1.8212-1.0077-0.40672-3.023-0.60086-6.0461-0.60086l-27.993-0.20346c-3.023 0-5.0384 0-6.0368 0.39754-0.20345 0-0.61016 0.8135-0.81354 1.8212-0.20345 1.2111-0.39752 2.228-0.39752 2.8289-0.20345 0.20346-0.61016 0.20346-1.2111 0.20346-0.6009 0-1.0077 0-1.2111-0.20346 0.40676-3.8366 0.40676-6.8688 0.40676-9.3002 0.20345-2.2188 0-5.4544-0.20346-9.0968 0.20346-0.20345 0.60091-0.20345 1.2111-0.20345 0.6009 0 1.0077 0 1.2018 0.20345v1.4238c0.20345 0.80426 0.40678 1.4144 0.61016 2.0153 0.20345 0.81357 0.40678 1.2111 0.6009 1.2111 0.80431 0.40672 2.8197 0.40672 6.0461 0.61011h11.279c0.20346-6.2679 0.3975-9.707 0.3975-9.9104 0-0.80426 0-4.04-0.19404-9.707l-0.20346-0.19404h-11.279c-2.8196 0-4.835 0-5.8427 0.39752-0.39753 0.20346-0.80431 0.8135-1.0077 2.0246-0.20345 1.0076-0.40678 2.0246-0.40678 2.6255-0.19406 0.20345-0.60091 0.20345-1.2018 0.20345-0.61016 0-1.0077 0-1.2111-0.20345 0.40678-3.8366 0.60091-6.8688 0.60091-9.3002 0-2.2187-0.19405-5.251-0.39753-9.0876 0.20345-0.20345 0.60093-0.20345 1.2111-0.20345 0.6009 0 0.99843 0 1.2018 0.20345 0 0.60091 0.20345 1.6086 0.40676 2.8289 0.20345 1.0077 0.40678 1.812 0.80431 1.812 0.80428 0.40675 2.8196 0.61013 6.0461 0.61013l27.993 0.20345c3.023 0 5.0384-0.20345 5.8427-0.40675 0.39752-0.20345 0.80428-0.80428 1.0077-1.8212 0.19405-1.2111 0.39753-2.2187 0.39753-2.8289 0.20345-0.20345 0.61013-0.20345 1.2111-0.20345 0.6009 0 1.0077 0 1.211 0.20345-0.40676 3.8458-0.61014 6.8781-0.61014 9.3002 0 2.228 0.20345 5.2603 0.40676 9.0968-0.20345 0.20345-0.6009 0.20345-1.2111 0.20345-0.60091 0-1.0077 0-1.2111-0.20345 0-0.60093 0-1.6178-0.39752-2.6255-0.20345-1.211-0.40676-1.8212-0.80428-2.0246-1.0077-0.40679-3.023-0.61016-6.0461-0.61016h-13.091c-0.20345 6.0738-0.40678 9.3095-0.40678 9.707 0 6.0738 0 9.5036 0.40678 9.9104h0.20345l12.684 0.20346c3.2264 0 5.2418-0.20346 6.0461-0.40679 0.39752-0.20345 0.6009-0.80425 1.0077-2.0245 0.20345-1.0077 0.39752-2.0154 0.39752-2.6256 0.20345-0.20345 0.61016-0.20345 1.2111-0.20345 0.61016 0 1.0077 0 1.2111 0.20345-0.40676 3.8458-0.6009 6.8781-0.6009 9.3002 0 2.2188 0 5.2603 0.39752 9.0968"/>
  <path d="m50.15 259.38h-1.0077c-0.6009-0.20345-1.0077-0.40676-1.2111-0.61017 0.20345-0.80428 0.40678-1.6178 0.40678-2.8289s0-1.8212-0.40678-2.0154c-0.80428-0.61016-2.8196-1.2203-5.6393-1.8212l-27.586-6.6747c-2.8196-0.6009-4.835-1.0077-5.8427-0.80428-0.20346 0-0.40679 0.20345-0.80429 0.40676-0.20345 0.39752-0.40678 0.80431-0.61016 1.4144-0.20345 0.39752-0.39752 1.0077-0.6009 1.4145 0 0.39753-0.20345 0.80429-0.20345 1.0077h-1.2111c-0.60091-0.20345-0.99844-0.40676-1.2018-0.61014 1.2018-3.6332 2.0154-6.4621 2.6163-8.8935 0.39753-1.4144 1.2111-5.0569 2.4129-10.918 1.0077-5.6578 2.0154-9.707 2.4221-11.722 1.4052 0.20345 3.4206 0.20345 6.0368 0.39752h4.2341c0.20345 0.20345 0.20345 0.81354 0 1.6178-0.20345 0.40676-0.40676 0.81354-0.80429 0.81354-2.4221 0.20345-4.4282 0.80428-5.6393 1.8212-1.4144 1.0077-2.2187 2.4221-2.8197 4.4467l-1.4144 5.8612c-0.6009 2.4221-0.6009 3.8458-0.20345 4.2433 0.20345 0 0.40675 0.20345 0.61016 0.20345 0.20345 0.20345 0.39752 0.20345 0.6009 0.40678 0.20345 0 0.40676 0 0.80429 0.20345 0.20345 0 0.40677 0 0.61015 0.20345 0.19405 0 0.60091 0 1.0077 0.19405 0.39753 0 0.80429 0.20346 0.99843 0.20346l12.49 3.0323c0.20345 0 0.40675-0.20344 0.61016-0.8043 0.19405-0.61014 0.39752-1.211 0.6009-2.0246l0.80429-3.6332c0.20345-0.61016 0.40677-1.0169 0.40677-1.4237 0.20345-0.6009 0.20345-1.0077 0.20345-1.4052 0-0.21261 0-0.61016 0.19406-0.81354 0-0.40679 0-0.61016-0.19406-1.0077 0-0.20345 0-0.40678-0.20345-0.61016 0-0.20345-0.20344-0.40676-0.40677-0.6009-0.20346-0.20345-0.20346-0.40676-0.39753-0.61016-0.20345 0-0.40676-0.20345-0.81354-0.40676-0.19405-0.20345-0.6009-0.40678-0.80428-0.6009-0.39753-0.20345-0.60091-0.40679-1.2018-0.61017-0.40678-0.20344-0.40678-0.61015-0.20345-1.0169 0-0.60091 0.39752-1.0077 0.60093-1.2111l13.091 3.2357c0.20345 0.20345 0.20345 0.61014 0 1.2203 0 0.39752-0.39753 0.80428-0.80431 0.80428-1.2111 0-2.0154 0.20345-2.8196 0.20345-0.60093 0.20345-1.2111 0.40676-1.4052 0.40676-0.20345 0.19405-0.40678 0.39753-0.61016 0.60091-0.6009 0.61015-1.2018 2.6255-2.0154 6.268-0.8043 3.2356-1.0077 4.8535-0.39752 5.0569l11.676 2.8289c3.023 0.61016 4.835 1.0077 5.4452 0.81354 0.39752-0.20346 0.80428-0.81354 1.2018-1.4237 0.20345-0.80431 0.40679-1.812 0.80431-3.0323l1.0077-4.2433c0.81354-3.439 0.81354-5.8612-0.19405-7.8858-1.0077-2.0154-2.8196-3.8366-5.8427-5.6578-0.20345 0-0.20345-0.40676 0-1.0169 0-0.39753 0.20346-0.80429 0.20346-1.2111 0.19405-0.39752 0.39752-0.6009 0.6009-0.6009 0.40678 0.20345 1.2111 0.80431 2.6163 1.6178 1.4144 1.0077 2.4221 1.6086 3.023 2.0153 0.80428 0.40676 1.6086 1.0169 2.6162 1.6178 1.0077 0.61017 1.812 1.0169 2.4221 1.2203-0.20345 1.2111-1.0077 4.6501-2.4221 10.308-1.4052 5.4544-2.4129 10.104-3.4206 13.544-0.20345 1.4145-0.61013 3.2357-1.2111 5.2603-0.39753 2.2188-0.6009 3.4298-0.80428 3.8366"/>
  <path d="m43.1 168c-1.0077-1.0077-4.4282-3.8366-9.67-8.2925 0-0.20345 0-0.20345 0.20345-0.39753 0-0.20345 0.20344-0.40677 0.40675-0.61015 0.19405-0.20345 0.39753-0.40676 0.99846-0.80429 0.40675-0.40678 1.0076-0.81354 1.6178-1.2203 0.40675-0.6009 1.0077-1.4144 1.4052-2.2187l13.497-21.836c0.40678-0.80428 0.8043-1.6178 1.0077-2.228 0.39752-0.80428 0.6009-1.6086 0.6009-2.2187 0.20345-0.61017 0.20345-1.017 0.40679-1.2111 0-0.20345 0.20345-0.40678 0.20345-0.61016 0.19405-0.20345 0.19405-0.20345 0.39752-0.40676 6.647 3.0323 10.678 4.8535 11.685 5.0569v0.81354c-0.20346 0.39753-0.20346 0.80428-0.40676 1.0077-0.20345 0.40676-0.60091 0.60091-0.80429 0.60091-1.2111-0.60091-2.2188-0.80431-3.4206-1.0077-1.2111-0.20345-2.2188-0.20345-3.2264 0-1.0077 0-1.812 0.20345-2.6162 0.81354-0.80431 0.39753-1.4144 1.0077-1.812 1.6178l-4.2341 6.6655 29.611 18.194c2.6162 1.6178 4.4282 2.6347 5.2325 2.8382 0.40676 0 1.0077-0.40679 1.8212-1.2203 0.8043-0.80428 1.4052-1.6178 1.812-2.2187 0.19405 0 0.6009 0.20345 0.99843 0.39752 0.40676 0.40676 0.81353 0.61014 0.81353 0.81354-2.2188 3.2356-3.8273 5.6578-5.0384 7.6824-1.4144 2.0246-2.8196 4.8535-4.6316 8.0892-0.20345 0-0.61014 0-1.0077-0.40679-0.40678-0.20345-0.80431-0.61013-0.80431-0.80428 0.20345-0.61016 0.60091-1.4144 1.2018-2.4314 0.40676-1.2111 0.40676-2.0246 0.20345-2.2188-0.8043-0.81354-2.4129-2.0246-4.835-3.6424l-29.602-18.194-4.0307 6.8688c-1.0077 1.4144-1.0077 3.2357-0.39752 5.2603 0.80428 1.8212 2.0061 3.6424 4.0215 5.4544 0 0.20346 0 0.61017-0.20345 0.81355 0 0.20345-0.39752 0.61015-0.60093 0.8043-0.39752 0.20345-0.6009 0.40676-0.80428 0.40676"/>
  <path d="m93.25 113.82c1.4052 1.4144 2.8196 2.6255 4.2341 3.6424 1.4052 1.2111 3.0138 2.0154 4.6316 3.0323 1.6086 0.80428 3.2172 1.4144 5.0291 1.8212 1.6178 0.39753 3.2264 0.60093 4.835 0.60093s3.2264-0.40678 4.6316-1.0077c1.6178-0.61017 2.8196-1.4144 4.2341-2.8289 1.2111-1.2111 2.2095-2.6348 2.6162-4.2526 0.6009-1.6086 0.8043-3.2264 0.6009-4.8443-0.19405-1.6178-0.6009-3.2357-1.4052-4.8535-0.6009-1.6178-1.6086-3.2357-2.6163-4.6501s-2.2187-2.8289-3.6332-4.2433c-1.2018-1.2203-2.6163-2.4314-4.2248-3.6425-1.4052-1.0077-3.023-2.0246-4.6316-2.8289-1.6086-0.81354-3.2264-1.4144-4.835-1.8212-1.812-0.61013-3.4206-0.81354-5.0384-0.61013-1.6086 0-3.2172 0.20345-4.6316 0.81353-1.6086 0.60091-3.023 1.6178-4.2249 2.8289-1.2111 1.2111-2.2187 2.8289-2.6255 4.4467-0.60091 1.4144-0.80428 3.0323-0.60091 4.6501 0.20345 1.6178 0.80431 3.2357 1.4144 4.8535 0.8043 1.6178 1.6086 3.2356 2.6163 4.6501 1.2111 1.6178 2.4129 3.0323 3.6239 4.2433m-5.0384 8.0892c-1.6086-1.6178-2.8196-3.2357-4.0215-5.2603-1.0077-1.8212-1.812-3.8366-2.2187-5.8612-0.6009-1.8212-0.8043-4.04-0.8043-6.0646s0.20345-4.04 0.8043-6.0646c0.40676-2.0246 1.2111-3.8366 2.2187-5.6578 1.0077-1.8212 2.2095-3.439 3.624-5.0569 1.2111-1.2111 2.6162-2.228 4.2248-3.2356 1.4144-1.0077 3.023-1.6178 4.6316-2.2188 1.6178-0.61017 3.4298-1.0169 5.0384-1.2203 1.812-0.20345 3.624-0.20345 5.2418 0 1.812 0.20345 3.6239 0.61013 5.2325 1.2203 1.6086 0.39752 3.4206 1.2111 5.0384 2.2188 1.4052 1.0077 3.0138 2.2187 4.4282 3.6424 1.4052 1.4144 2.8196 3.2357 3.8273 5.0476 1.0077 2.0246 1.812 3.8458 2.2187 5.8704 0.6009 2.0154 0.8043 4.04 0.8043 6.0646 0 2.2188-0.20345 4.2434-0.8043 6.2679-0.40676 1.812-1.2111 3.8366-2.2187 5.6578-1.0077 1.8212-2.2188 3.439-3.624 4.8535-1.4144 1.4144-3.2264 2.6255-4.835 3.8366-1.812 1.0169-3.8273 1.6178-5.6393 2.228-2.0154 0.40678-4.0307 0.80431-6.0461 0.80431s-4.2249-0.39753-6.0368-0.80431c-2.0153-0.40676-4.0307-1.2111-5.8427-2.4314-2.0154-1.0077-3.6239-2.4221-5.2418-3.8366"/>
  <path d="m151.26 95.62c-0.20345-0.20345-0.6009-0.40676-0.80428-1.0077-0.40678-0.40676-0.61016-0.81354-0.40678-1.0169 0.61016-0.39752 1.2111-1.0077 2.2188-1.812 0.80428-0.81353 1.2111-1.2203 1.0077-1.6178-0.20345-1.0169-1.2111-2.8381-2.6162-5.4636l-15.106-24.055c-1.6178-2.4314-2.8196-4.0492-3.6239-4.6501-0.20345-0.20345-0.40676-0.20345-0.81353-0.20345-0.39753 0.20345-1.0077 0.20345-1.4052 0.40676-0.61013 0.19404-1.0077 0.6009-1.4144 0.8043-0.39753 0-0.80428 0.20345-1.0077 0.40676-0.19405-0.20345-0.39753-0.40676-0.80431-0.81354-0.19405-0.6009-0.39752-1.0077-0.39752-1.2111 3.4206-1.8212 6.0368-3.2357 8.0522-4.4467 2.0153-1.4144 4.4282-3.0323 7.6546-5.2602 0.20345 0 0.40676 0.40676 0.6009 0.81353 0.40679 0.40676 0.61017 0.80429 0.61017 1.0077-0.61017 0.40677-1.4144 1.0169-2.2188 1.8212-0.80428 0.81354-1.2111 1.4144-1.2111 1.8212 0.20345 0.80428 1.2111 2.6255 2.8196 5.251l15.106 24.064c1.6178 2.6255 2.6162 4.04 3.2264 4.4467 0.39753 0 1.0077 0 1.812-0.20345 0.6009-0.40678 1.6086-0.80431 2.8196-1.6178l3.6239-2.4221c2.8196-1.8212 4.6316-3.6425 5.2418-5.6578 0.80428-2.0246 0.6009-4.6593-0.20345-8.0892 0-0.20345 0.20345-0.61016 0.60093-0.81354 0.40676-0.20345 0.80428-0.40676 1.2111-0.6009 0.40676-0.20345 0.60091-0.20345 0.80428-0.20345 0 0.6009 0.20346 1.6178 0.60091 3.0323 0.40678 1.6178 0.61016 2.8289 0.81354 3.6332 0.19405 0.81353 0.39753 1.8212 0.8043 3.0415 0.19406 1.0077 0.60091 2.0153 0.80429 2.6255-1.0077 0.60091-4.0307 2.4221-8.8657 5.4544s-8.8657 5.4636-11.88 7.2756c-1.2111 1.0169-2.8196 2.0246-4.6316 3.0415-1.6178 1.2111-2.8196 2.0154-3.023 2.2188"/>
  <path d="m195.17 69.54c-0.20345-0.20345-0.40676-0.40676-0.60091-1.0077-0.20345-0.61014-0.20345-1.0169-0.20345-1.2203 0.60091-0.19405 1.4052-0.80431 2.4129-1.4144 1.0077-0.60091 1.6086-1.0077 1.6086-1.4144 0-1.0077-0.6009-3.0323-1.6086-5.8612l-9.2632-26.486c-1.0077-2.8289-1.812-4.6501-2.4129-5.4544-0.40679-0.20345-1.0077-0.40676-2.2188-0.20345-1.2111 0.20345-2.0154 0.40675-2.8197 0.6009-0.20345-0.19405-0.39752-0.39752-0.6009-1.0077-0.20345-0.6009-0.20345-1.0077-0.20345-1.2111 3.8273-1.0077 6.647-2.0246 8.8565-2.8289 2.2188-0.61016 5.0384-1.8212 8.6623-3.439 0 0.20345 0.20345 0.61017 0.40676 1.2111 0.20345 0.40678 0.39752 0.81354 0.20345 1.0169-0.20345 0.19405-0.80431 0.39752-1.4145 0.80431-0.40676 0.20345-1.0077 0.61013-1.6086 1.0076-0.61016 0.40679-0.80431 0.81355-0.80431 1.017 0 1.0077 0.39753 2.8289 1.6086 5.8612l4.4282 12.536c1.6178-2.6255 3.2264-5.667 4.835-9.0968 0.40676-0.61014 0.80429-1.6178 1.4144-2.6347 0.39752-1.2111 0.80428-1.812 1.0077-2.2188 0.19406-0.40676 0.39753-1.0169 0.80429-1.6178 0.20344-0.81354 0.6009-1.4144 0.6009-1.8212 0.20345-0.61014 0.40678-1.0077 0.6009-1.8212 0.40679-0.60093 0.61017-1.4145 0.81355-2.2188 0.19404-0.40676 0.19404-0.81354 0.19404-1.2111v-1.2203c-0.39752-1.0077-1.812-1.0077-4.4282-0.20345-0.20345-0.20345-0.39752-0.3975-0.6009-1.0077-0.20345-0.40678-0.20345-0.8043-0.20345-1.2111 0.40676-0.20345 1.2111-0.40678 2.0153-0.61016 0.80431-0.20345 1.6086-0.40676 2.2095-0.60091 0.61015-0.20345 1.2111-0.40675 2.0154-0.61015 0.81353-0.20345 1.6178-0.40676 2.0154-0.61014 1.812-0.80431 4.4282-1.8212 7.6546-3.2357 0.20345 0.20345 0.40678 0.61016 0.6009 1.2203 0.20345 0.39752 0.20345 0.80431 0.20345 1.0077h-0.20345c-0.39752 0.20345-0.80428 0.40676-1.2018 0.61016-0.40678 0.19405-0.81354 0.60091-1.6178 1.0077-0.6009 0.40678-1.2018 1.0077-1.812 1.6178-0.6009 0.61014-1.0077 1.4144-1.4052 2.0246-0.40679 1.211-1.2111 2.8289-2.2188 4.8442-0.80429 2.0246-2.0154 4.456-3.4206 7.2849-1.4144 2.8289-2.4221 5.0476-3.2264 7.0722-0.20345 0.40678-0.20345 0.81354 0.40676 1.0169 0.39752 0.39753 2.0154 1.4144 4.6316 3.0323 2.6163 1.6086 4.4282 2.6255 5.2325 3.2264 1.0077 0.61016 2.4221 1.4144 4.0307 2.4314 1.812 1.0077 3.2172 1.8212 4.2341 2.4221 1.0077 0.61016 1.812 1.0169 2.4129 1.2111 3.6239 2.0246 7.2479 2.6348 10.872 1.6178 0.20345 0 0.40676 0.40676 0.40676 0.81354 0.20345 0 0.20345 0.20345 0.20345 0.20345 0.20345 0.60091 0.20345 1.0077 0.20345 1.2111-1.0077 0.40675-2.0153 0.81354-3.023 1.0077-2.6163 1.0169-4.6316 1.6178-6.2402 2.0246-1.4144 0.40679-3.023 0.40679-4.4375 0.20345-1.6086-0.20345-3.023-0.81354-4.2248-1.6178-0.8043-0.40676-2.0154-1.2111-4.2341-2.4314-2.0154-1.2111-4.6316-2.8289-7.6546-4.6409-2.8197-1.8212-5.4359-3.2357-7.4513-4.456-0.20345-0.20345-0.39752-0.20345-0.6009 0-0.20346 0-0.40678 0.20345-0.61016 0.40678l4.0307 11.528c1.0077 2.8289 1.812 4.6501 2.4221 5.4544 0.19405 0.20346 1.0077 0.40679 2.2095 0.20346 1.0077-0.20346 2.0154-0.40676 2.6255-0.61014 0.19405 0.20345 0.39752 0.61014 0.6009 1.0169 0.20345 0.6009 0.20345 1.0077 0.20345 1.2111-3.6332 1.0077-6.647 2.0246-8.8657 2.8289-2.2187 0.81354-5.0384 1.8212-8.4589 3.439"/>
  <path d="m251.97 52.15c-0.20345-0.20345-0.40676-0.61017-0.40676-1.2111-0.20345-0.40675-0.20345-0.81354 0-1.0169 0.40676-0.19405 0.80428-0.19405 1.4144-0.39752 0.60091-0.20345 1.4052-0.40679 2.0154-0.81354 0.60091-0.20345 0.99843-0.6009 0.99843-0.80428 0.20345-1.017 0-3.0323-0.39752-6.0646l-4.4282-27.901c-0.40679-3.0323-0.80431-4.8535-1.4145-5.8612 0-0.20346-0.39752-0.40676-0.80428-0.40676-0.39753-0.20345-0.80429-0.20345-1.4144-0.20345h-1.4052c-0.6009 0-1.0077 0-1.2111 0.20345-0.19405-0.20345-0.19405-0.61016-0.39753-1.2111v-1.2203c3.8273-0.39753 6.8411-0.60091 9.2632-1.0077 2.2095-0.40678 5.2325-1.0077 9.0599-1.8212 0.20345 0.20345 0.20345 0.61016 0.40676 1.2111v1.0169c-0.80428 0.20345-1.6086 0.40678-2.8197 0.80431-1.0076 0.40675-1.6178 0.81353-1.812 1.2203 0 0.80429 0 2.8289 0.6009 6.0553l4.2341 27.91c0.60093 3.2264 1.0077 5.0476 1.4052 5.8612 0.20345 0.39752 0.80428 0.60093 2.0154 0.60093 1.2111 0 2.2188 0 2.8196-0.20346 0.20345 0.20346 0.20345 0.61017 0.40678 1.2203v1.2111c-3.8273 0.20345-6.8504 0.60091-9.2725 1.0077-2.2095 0.40679-5.2325 1.0077-8.8565 1.8212"/>
  <path d="m286.4 47.3c-0.20345-0.20345-0.20345-0.61016-0.20345-1.0077 0-0.61014 0-1.0169 0.20345-1.2203 0.80428 0 1.812-0.19405 2.8196-0.19405 1.2111-0.20345 1.812-0.61016 2.0154-0.81354 0.20345-1.0077 0.39753-3.0323 0.6009-6.0646l0.40679-28.307c0.20345-3.0323 0-5.0476-0.20345-6.0646-0.20345-0.20345-0.40679-0.39752-0.80431-0.6009-0.40676-0.20345-0.80428-0.20345-1.4144-0.40678-0.60091 0-0.99844-0.20345-1.4052-0.20345h-1.2111c0-0.20346-0.20345-0.61014-0.20345-1.2111 0-0.61013 0.20345-1.0169 0.40678-1.2111 3.6239 0.39752 6.8504 0.60093 9.0598 0.60093h11.084c6.0368-0.20346 9.8641-0.20346 12.083-0.20346 0 1.4145 0.39752 3.439 1.0077 6.0646 0.39753 2.4314 0.80429 3.8458 0.80429 4.2526-0.20345 0.19405-0.80429 0.19405-1.6086 0.19405-0.40676 0-0.81354-0.19405-1.0169-0.39753-0.6009-2.4314-1.6086-4.2433-3.0138-5.2602-1.2111-1.2111-2.8196-1.8212-4.835-1.8212l-5.8427-0.19405c-2.6163 0-4.0307 0.19405-4.2249 0.8043-0.20345 0.20345-0.20345 0.40676-0.20345 0.61014 0 0.20345-0.20346 0.39753-0.20346 0.60093v2.6255c0 0.40676 0 0.61014-0.20345 0.81355l-0.19404 12.933c0 0.21261 0.39752 0.40678 0.80428 0.40678 0.60093 0.20345 1.4052 0.20345 2.2095 0.20345l3.8273 0.20345h2.6162c0.40678-0.20345 0.81354-0.20345 1.0077-0.20345 0.40678 0 0.61016-0.20345 0.8043-0.20345 0.40676-0.19405 0.61014-0.19405 0.61014-0.40678 0.20345-0.19405 0.39753-0.19405 0.60091-0.39753 0.20345-0.40676 0.20345-0.61016 0.40678-0.81353 0 0 0.20345-0.39753 0.39753-0.80429 0-0.20345 0.20345-0.61016 0.20345-0.81354 0.20345-0.39752 0.20345-0.8043 0.40677-1.4144 0-0.19405 0.39753-0.39753 1.0077-0.39753 0.6009 0 1.0077 0.20345 1.2111 0.39753l-0.20345 13.553c-0.20345 0.19405-0.61016 0.19405-1.2111 0.19405-0.61017 0-0.80429-0.19405-1.0077-0.6009-0.40675-1.0077-0.6009-2.0246-0.80428-2.6348-0.40678-0.80429-0.61016-1.2111-0.80429-1.4144-0.20345-0.19404-0.40678-0.39752-0.60092-0.39752-0.61014-0.40676-2.8289-0.61014-6.4528-0.81354-3.4206 0-5.0291 0.20345-5.0291 0.81354l-0.20345 12.129c-0.20345 3.0323 0 4.8535 0.20345 5.4544 0.39752 0.40675 0.99842 0.61013 1.6086 0.81354 0.80428 0 1.812 0.20345 3.2172 0.20345h4.4375c3.4206 0.20345 5.8334-0.40678 7.4512-1.8212 1.812-1.2111 3.2172-3.6424 4.2249-6.8781 0.20345-0.19405 0.40676-0.39753 1.0077-0.39753 0.40678 0 0.80431 0 1.2111 0.20345 0.40679 0 0.80431 0.19405 0.80431 0.19405-0.20345 0.61017-0.61016 1.4144-1.0077 3.0323-0.60091 1.4144-1.0077 2.6347-1.4052 3.439-0.20345 0.81354-0.61016 1.6178-1.0077 2.8289-0.20345 1.0169-0.40678 2.0246-0.61015 2.8289-1.2111 0-4.6316-0.19405-10.474-0.39752-5.63-0.20345-10.271-0.20345-13.895-0.40676h-5.4359z"/>
  <path d="m338.57 49.53c0-0.20345 0-0.61016 0.20345-1.2111 0-0.40676 0.20345-0.81354 0.40678-1.0169 0.6009 0.20345 1.812 0.20345 3.2172 0.40676 1.4145 0 2.2188-0.20346 2.6255-0.60091 0.79503-0.81354 1.4052-2.6347 2.2095-5.667l7.0537-27.291c0.60091-2.6255 0.80431-4.4467 0.39753-5.6578-0.20345-0.40678-0.80428-1.0169-2.0154-1.4237-1.2018-0.6009-2.0153-1.0077-2.6163-1.2111-0.20345-0.20345-0.20345-0.60091 0-1.2111 0.20345-0.61013 0.39752-1.0077 0.39752-1.0077 0.61017 0 1.2111 0.39753 2.4221 0.60091 1.0077 0.40675 1.812 0.61013 2.6163 1.0169 0.80428 0.20345 1.6178 0.39753 2.4221 0.60091 2.2187 0.61016 4.2248 1.0169 6.4436 1.4144 0.3975 1.4144 1.2018 3.6424 2.6162 6.6747 1.2111 3.2357 2.6163 6.2679 4.2341 9.5036 1.6086 3.2357 3.2172 7.0722 5.0292 11.121 2.0154 4.2433 3.6332 7.6824 4.6316 10.308 0.20345-0.20345 0.40676-1.2111 1.0077-3.439l4.4375-17.389c0.80428-3.6332 1.2018-5.8612 0.99843-7.0722-0.19405-0.40677-0.80431-1.0077-2.0061-1.6178-1.2111-0.61013-2.2188-1.0077-3.023-1.2111v-1.0169c0.20345-0.6009 0.39752-1.0077 0.6009-1.2111 0.61017 0.20345 1.812 0.61017 3.4298 1.0169 1.812 0.60093 3.2172 1.2111 4.4282 1.4145 1.2018 0.39753 2.8196 0.6009 4.6316 1.0077 1.812 0.20345 3.023 0.61016 3.6239 0.61016v1.2111c-0.20346 0.40676-0.39753 0.80429-0.60091 1.0077-0.81354 0-1.812-0.20345-3.2264-0.40678-1.4052 0-2.4129 0.20345-2.8196 0.61016-0.60091 0.81354-1.4052 2.8289-2.2187 6.4713l-6.6377 25.673c-0.40679 1.6178-1.2111 4.8535-2.2188 9.707-0.20346 0.20345-0.61017 0.20345-1.6178 0-0.19405-0.20345-0.6009-0.40679-0.99843-0.80428-0.20345-0.40679-0.61016-0.81354-0.81353-1.4145l-19.534-43.672-7.2479 28.095c-0.80429 3.0323-1.0077 4.8535-0.80429 5.8704 0 0.6009 0.80429 1.0077 2.0061 1.812 1.4145 0.61017 2.4221 1.0169 3.023 1.2203 0.20345 0.39752 0.20345 0.80428 0 1.2111-0.19406 0.60091-0.19406 1.0077-0.39753 1.211-0.40676-0.20345-1.6086-0.61013-3.6239-1.211-1.812-0.61016-3.4298-1.2111-4.6316-1.4145-1.2111-0.40676-2.6255-0.61014-4.2341-1.0169-1.812-0.19405-3.023-0.39752-3.8273-0.6009"/>
  <path d="m437.66 60.65c2.0153-2.8289 4.2248-5.0569 7.0445-6.8781 2.6255-1.6178 5.4452-2.8289 8.4682-3.4298 3.0138-0.61016 6.2402-0.61016 9.4666 0 3.2172 0.6009 6.2402 2.0153 9.0599 3.8366 4.4282 3.2357 8.2556 6.4713 11.482 9.707 0 0-0.40676 0.80428-1.2111 2.4221-0.60091 1.6178-1.4052 3.2356-2.0154 4.8535-0.60091 1.4144-1.0077 2.4221-1.2111 2.6255-0.19405 0.20345-0.39753 0.40676-0.8043 0.40676-0.60091-0.20345-0.80429-0.20345-1.2111-0.40676-0.3975-0.39753-0.60091-0.6009-0.60091-0.80431 0.20346-0.61013 0.40679-1.0077 0.40679-1.4144 0.19405-0.40676 0.39752-1.0077 0.39752-1.8212 0.20345-0.80431 0.20345-1.4145 0.20345-2.2188 0-0.61016-0.20345-1.6178-0.40678-2.4314-0.19404-1.0077-0.6009-1.8212-0.99842-2.8289-0.40676-0.81354-1.2111-1.6178-2.0154-2.6255-1.0077-1.0169-2.0154-2.0246-3.2264-2.8289-1.2111-0.81354-2.4129-1.4237-3.8273-1.8212-1.2018-0.40676-2.4129-0.61014-3.8273-0.61014-1.2111 0-2.4129 0-3.8273 0.40676-1.2018 0.20345-2.4129 0.80431-3.6239 1.4144-1.2018 0.61016-2.2095 1.2111-3.4206 2.2188-1.0077 0.81354-2.0154 1.6178-3.023 2.8381-1.0077 1.0077-1.812 2.0154-2.6162 3.2264-1.2111 1.6178-2.0154 3.2449-2.8196 4.8535-0.80431 1.6178-1.4144 3.2357-1.812 5.0569-0.40678 1.6178-0.61016 3.2356-0.61016 5.0569 0 1.6178 0.20345 3.2357 0.61016 4.8535 0.39753 1.4144 1.0077 2.8289 2.0154 4.2433 0.99842 1.4145 2.2095 2.6255 3.8273 3.6332 2.0061 1.6178 4.4282 2.4314 6.647 2.8382 0.39752 0 0.80428 0 0.99842-0.61016l4.4375-6.2679c0-0.20345 0.19405-0.40676 0.39753-0.80428l0.61016-0.61016s0.20345-0.20345 0.20345-0.61016c0.19404-0.19405 0.39752-0.39753 0.39752-0.60091 0.20346-0.20345 0.20346-0.40677 0.39753-0.61015 0-0.20345 0.21261-0.39753 0.21261-0.60091 0.19405-0.40676 0-1.0169-0.61016-1.6178-0.39753-0.61016-0.80431-1.2111-1.4144-1.6178-0.39752-0.40675-0.8043-0.61013-1.2018-1.0169 0 0 0-0.39752 0.39753-1.0077 0.40678-0.40676 0.61016-0.80428 0.8043-0.80428 0.61014 0.39752 1.4144 1.0077 2.4221 1.812 1.2111 0.81355 2.2095 1.6178 3.023 2.228 0.80428 0.80431 1.6086 1.2111 2.4129 1.8212 0.80428 0.60091 1.4144 1.0077 2.2188 1.4144 0.80428 0.60091 1.6086 1.0077 2.6162 1.6178 1.0077 0.60093 1.812 1.0077 2.4129 1.4144-0.19404 0.40678-0.39752 0.8043-0.6009 1.2111-0.39752 0.61017-0.6009 0.81354-0.80428 0.81354-0.40679-0.40675-1.2111-0.81354-2.2188-1.2203-1.0077-0.39752-1.6086-0.6009-2.0154-0.39752-0.60091 0.20345-1.4052 1.2111-2.6163 3.0323l-3.6239 5.251c-0.20345 0.40675-0.39753 0.81353-0.60091 1.4144-0.20345 0.40676-0.40678 0.81354-0.40678 1.0169-0.19405 0.20345-1.0077 0.40675-2.4129 0.20345-1.2111-0.20345-2.0154-0.40676-2.6255-0.61016-0.6009-0.20345-1.6086-0.40676-2.6163-0.61014-1.2018-0.39752-2.2095-0.80431-3.0138-1.2111-1.0077-0.40678-2.0246-1.0077-3.2264-1.6178-1.4144-0.6009-2.6163-1.4144-3.8273-2.228-2.8197-2.0154-5.0384-4.2433-6.8504-7.0722-1.812-2.6255-3.0138-5.4544-3.4206-8.4867-0.60091-2.8382-0.60091-5.8704 0-8.8935 0.60091-3.0415 1.812-5.8704 3.6239-8.4959"/>
  <path d="m473.92 116.85c0-0.40676 0.20345-0.61016 0.80429-1.0077 0.40677-0.40676 0.60092-0.61014 1.0077-0.61014 0.40678 0.40676 1.2111 1.2111 2.0154 1.8212 1.0077 0.80431 1.6086 1.0077 2.0154 0.80431 0.80428-0.40678 2.4129-1.6178 4.6316-3.6332l20.949-19.211c2.2188-2.0154 3.4206-3.439 4.0307-4.2434 0-0.20345 0-0.61016-0.20345-1.0169 0-0.39753-0.20346-0.80428-0.61017-1.2111-0.20345-0.60091-0.6009-1.0077-0.80431-1.2111-0.19405-0.40675-0.6009-0.80428-0.6009-1.0077 0-0.20345 0.20345-0.40676 0.6009-0.81352 0.40679-0.39752 0.80431-0.60093 1.0077-0.60093 2.4221 2.8289 4.4282 5.251 6.0368 7.0722 1.0169 1.0169 3.4298 3.6424 7.6546 7.8858 4.0307 4.2433 6.8504 7.2756 8.2648 8.6901-1.0077 1.2111-2.2187 2.8382-3.6239 4.8535-1.6178 2.228-2.4221 3.439-2.4221 3.439-0.40675 0-0.80428-0.20345-1.4052-0.81353-0.40676-0.39753-0.40676-0.80429-0.20346-1.0077 1.2018-2.2187 1.812-4.2433 1.6086-5.8612 0-1.6178-0.6009-3.2357-2.0153-4.6501l-4.0215-4.4467c-1.812-2.0246-2.8196-2.8289-3.4298-2.6348-0.20345 0-0.40676 0.20346-0.6009 0.20346-0.20345 0.20345-0.40679 0.20345-0.40679 0.40675-0.20345 0.20346-0.39752 0.20346-0.80428 0.40679l-0.39753 0.6009c-0.20345 0.20345-0.40675 0.40676-0.81353 0.61014l-0.60091 0.61016-9.67 8.6901c0 0.20345 0 0.61016 0.40676 1.0077 0.20345 0.61016 0.61016 1.0169 1.2111 1.8212l2.6163 2.6348c0.3975 0.39752 0.6009 0.8043 1.0077 1.2111l0.80431 0.80431c0.39752 0.20344 0.6009 0.40675 0.80428 0.61013 0.20345 0.20345 0.40678 0.39753 0.80428 0.39753 0.20345 0.20345 0.40678 0.20345 0.60093 0.20345 0.20345 0.20345 0.40676 0.20345 0.81354 0h0.6009c0.20345-0.20345 0.60091-0.20345 0.80429-0.39753 0.40677 0 0.8043-0.20345 1.0077-0.40676 0.40676-0.20345 0.6009-0.40675 1.2111-0.61016 0.19404-0.20345 0.6009 0 1.0077 0.40678 0.3975 0.40676 0.6009 0.80429 0.6009 1.2111l-10.068 9.0968c-0.20345 0-0.61016-0.19405-1.0077-0.6009-0.20345-0.40676-0.40678-0.81355-0.20345-1.2111 0.60091-1.0169 1.0077-1.8212 1.4144-2.6347 0.19404-0.60093 0.39752-1.0077 0.39752-1.2111v-1.0077c-0.20345-0.61016-1.6086-2.4314-4.0307-5.0569-2.2095-2.4221-3.6239-3.6424-4.0215-3.2357l-8.8657 8.2925c-2.2188 2.0154-3.4206 3.2357-3.6239 3.8366-0.20345 0.61017 0 1.2203 0.40676 1.8212 0.39753 0.61014 1.2111 1.4144 2.0061 2.4221l3.023 3.2357c2.2188 2.4314 4.4375 3.8458 6.4436 4.2526 2.2188 0.39752 4.8443-0.20345 8.0614-1.6178 0.20345-0.20346 0.6009 0 0.80428 0.39752 0.40676 0.20345 0.61016 0.61013 0.80428 1.0169 0.20345 0.39752 0.40678 0.6009 0.40678 0.80428-0.6009 0.20345-1.4144 0.61016-3.023 1.2111-1.4144 0.61017-2.6163 1.0169-3.2264 1.4237-0.8043 0.19404-1.812 0.80428-2.8196 1.2111-1.0077 0.6009-1.812 1.0077-2.4129 1.4144-0.80429-1.0077-3.2264-3.439-7.0537-7.8858-3.8273-4.2433-6.8411-7.6824-9.2632-10.308-1.2018-1.2203-2.4129-2.4314-3.8273-4.0492-1.4052-1.4144-2.4129-2.4221-2.6163-2.8289z"/>
  <path d="m519.23 150.61c0.20345 0 0.6009 0.20345 1.0077 0.40676 0.39752 0.39752 0.80428 0.60092 0.80428 0.8043 0.20345 0.40676 0.20345 0.81354 0 1.0077-0.6009 0.61014-1.2111 1.2203-1.812 1.8212-0.60091 0.81354-1.0077 1.6178-1.6086 2.6348-0.61017 1.2111-1.0077 2.2187-1.4144 3.4298-0.20346 1.2203-0.20346 2.4314 0 3.8458 0.20345 1.4144 0.61015 2.6255 1.4144 4.04 0.39752 0.61017 0.80431 1.0077 1.2018 1.4144 0.40676 0.61016 1.0077 1.0169 1.4144 1.4144 0.6009 0.20345 1.2111 0.61016 1.812 0.61016 0.60091 0.20346 1.2111 0.40676 1.812 0.40676 0.61016 0 1.4144 0 2.0154-0.40676 0.8043-0.20345 1.6086-0.40678 2.4129-0.81354 0.40676-0.39752 0.81351-0.80428 1.211-1.2111 0.39753-0.40676 0.80431-0.80428 1.0077-1.2111 0.40678-0.61016 0.6009-1.0077 0.80431-1.4144 0.20345-0.40676 0.40675-1.0077 0.61013-1.6178 0-0.80431 0.19405-1.2111 0.19405-1.8212 0-0.39753 0.20345-1.0077 0.20345-1.8212v-7.8765c0-0.40675 0-1.0169 0.20345-2.0246v-2.0246c0.20345-0.60093 0.20345-1.2111 0.39753-2.0246 0.20345-0.80431 0.40678-1.4052 0.61016-2.0154 0.20345-0.40676 0.39752-1.0169 0.6009-1.8212 0.40678-0.61017 0.80431-1.2111 1.2111-1.6178 0.39753-0.61014 0.8043-1.0077 1.4052-1.4144 0.40676-0.61015 1.0169-1.0076 1.812-1.4144 1.4144-1.0077 3.2264-1.4144 4.835-1.6178 1.812 0 3.6239 0.20345 5.2418 0.80429 1.6086 0.61015 3.2172 1.4237 4.6316 2.6348 1.4052 1.0077 2.6162 2.4221 3.6239 4.04 0.39752 0.81354 0.80428 1.8212 1.4144 2.6255 0.39753 1.0169 0.60091 1.8212 0.80429 2.4314 0.20344 0.6009 0.60092 1.4144 0.99845 2.6255 0.20345 1.4144 0.61014 2.4314 0.81354 3.0323-2.0154 1.8212-5.0384 3.8458-8.8657 6.4713-0.39753 0-0.60091 0-0.80431-0.40676-0.6009-1.2111-0.80428-1.8212-0.6009-2.0154 0.6009-0.61015 1.2018-1.2203 1.812-2.0246 0.6009-0.61016 1.2018-1.4144 1.6086-2.4314 0.40678-1.0077 0.80428-1.812 1.0077-2.8289 0.39753-1.0077 0.39753-2.0246 0.20346-3.0323 0-1.2111-0.40679-2.2188-1.0077-3.0323-1.0077-2.0246-2.4221-3.0323-4.2341-3.439-1.6086-0.39752-3.4206 0-5.2325 1.0169-0.40675 0.39753-0.80428 0.6009-1.0077 1.0077-0.40678 0.40676-0.80431 0.61016-1.0077 1.0169-0.20345 0.39752-0.39752 0.80428-0.61015 1.2111-0.39753 0.60091-0.39753 1.0077-0.60091 1.4144-0.20345 0.39752-0.20345 1.0077-0.39752 1.6178 0 0.60092-0.20345 1.2111-0.20345 1.6178 0 0.39753-0.20346 0.80429-0.20346 1.6178 0 0.80431-0.20345 1.2111-0.20345 1.6178v6.6655c0 0.40676-0.19405 1.0169-0.19405 1.8212 0 0.61014 0 1.211-0.20345 1.6178 0 0.40676 0 1.0077-0.20345 1.8212 0 0.6009-0.20345 1.211-0.39753 1.6178 0 0.39752-0.20345 1.0077-0.40675 1.6178-0.40678 0.6009-0.61016 1.0077-0.80431 1.6086-0.40676 0.40679-0.81353 0.81355-1.2111 1.2203-0.20344 0.6009-0.6009 1.0077-1.2111 1.4144-0.39752 0.40676-1.0077 0.80428-1.6086 1.2111-1.6086 1.0169-3.4206 1.4144-5.2326 1.6178-1.812 0.20344-3.6332 0-5.2418-0.80429-1.812-0.61016-3.2264-1.4145-4.835-2.8381-1.4052-1.2111-2.6163-2.6255-3.6239-4.2434-0.80431-1.2111-1.6086-2.6255-2.2095-4.2433-0.81351-1.8212-1.211-3.0323-1.6178-3.8458-0.20345-0.80428-0.80428-2.2187-1.4052-4.2433 1.2018-1.2111 2.8196-2.4221 4.835-4.04 2.0061-1.6178 3.4206-2.8289 4.2248-3.2357"/>
  <path d="m530.92 197.72c0.20346-0.20345 0.60091-0.40675 1.0077-0.61015 0.6009-0.19405 1.0077-0.19405 1.2111-0.19405 0.39753 0.80428 0.79506 1.6086 1.2018 2.6255 0.60091 1.0076 1.2111 1.4144 1.6178 1.4144 0.99845 0 2.8196-0.61017 5.63-1.6178l26.588-9.5036c2.8196-1.0077 4.6316-2.0246 5.4359-2.6255 0.20345 0 0.20345-0.40676 0.20345-0.81354 0.20345-0.39752 0-1.0077 0-1.4144-0.20345-0.60091-0.20345-1.0077-0.39753-1.6178 0-0.39753-0.20345-0.80431-0.20345-1.0077 0.20345-0.20345 0.39753-0.40676 1.0077-0.61016 0.60093-0.19405 1.0077-0.19405 1.2111-0.19405 1.0077 3.6332 1.812 6.6655 2.6163 8.8934 0.6009 1.4144 2.0154 4.8535 4.2248 10.308 2.0154 5.4636 3.6332 9.3002 4.2341 11.325-1.2111 0.6009-3.023 1.6178-5.2418 3.0323-2.0154 1.4144-3.2172 2.2187-3.624 2.2187-0.20345 0-0.39752-0.60091-0.80428-1.2111-0.20345-0.61014 0-1.0077 0.20345-1.211 2.0154-1.6178 3.2172-3.0323 3.8273-4.6501 0.6009-1.6178 0.6009-3.2357-0.20345-5.2603l-2.0154-5.4544c-0.80428-2.6255-1.6086-3.8458-2.2095-3.8458h-0.61016c-0.20345 0.20345-0.39753 0.20345-0.60091 0.20345-0.20345 0-0.40676 0.20345-0.80428 0.20345-0.20345 0.20345-0.40678 0.20345-0.61016 0.20345-0.20345 0.20345-0.6009 0.20345-1.0077 0.40676-0.39752 0.20345-0.6009 0.20345-0.80428 0.39752l-12.083 4.2526c-0.20344 0.19405-0.20344 0.39752-0.20344 1.0077 0.20344 0.6009 0.40675 1.2111 0.61015 2.0246l1.2111 3.6332c0.19406 0.61016 0.39753 1.0169 0.60091 1.4145 0.19405 0.40676 0.39753 0.81355 0.39753 1.2203 0.20345 0.19405 0.40675 0.6009 0.61016 0.80431 0 0.20345 0.20345 0.40676 0.39749 0.61014 0.20346 0.20345 0.40679 0.40678 0.60093 0.6009 0.20346 0 0.40676 0.20345 0.61014 0.20345 0.39753 0 0.60093 0.20345 0.80431 0.20345h1.812c0.40676 0 0.80428-0.20345 1.4144-0.20345 0.39753 0 0.60091 0.20345 0.80431 0.81354 0.20345 0.6009 0.20345 1.0077 0 1.4144l-12.693 4.4467c-0.19405 0-0.39753-0.40675-0.60091-1.0169-0.20345-0.39752-0.20345-0.80428 0.20346-1.2111 1.0077-0.6009 1.6086-1.2111 2.2095-1.6178 0.61016-0.6009 0.80431-1.0077 1.0077-1.2111 0-0.20345 0.20344-0.40676 0.20344-0.80428 0.20345-0.81354-0.40675-2.8381-1.812-6.268-1.0077-3.2356-1.812-4.6501-2.4129-4.456l-11.279 4.0492c-3.023 1.0077-4.6409 1.8212-5.0384 2.2187-0.20345 0.61016-0.20345 1.2203 0 1.8212 0 0.81353 0.39752 1.8212 0.80431 3.2357l1.6086 4.0492c1.0077 3.2356 2.6255 5.251 4.2341 6.4621 2.0154 1.0169 4.6316 1.6178 8.0522 1.4237 0.20345 0 0.61016 0.19405 0.80431 0.8043 0 0.40676 0.20345 0.80428 0.20345 1.2111v0.81351h-6.8411c-0.80428 0-1.812 0-3.023 0.20346-1.0077 0-2.0154 0.19405-2.8197 0.19405-0.40675-1.0077-1.4144-4.4467-3.4298-9.6977-1.812-5.4636-3.4206-9.9104-4.6316-13.349-0.6009-1.4144-1.2018-3.2357-2.0153-5.0476-0.80431-2.0246-1.2018-3.2357-1.4052-3.6424"/>
  <path d="m547.23 248.06c0.20345-0.20345 0.61015-0.40676 1.2111-0.40676h1.2111c0 0.81352 0.19404 1.6178 0.6009 2.8289 0.40676 1.0169 0.80428 1.6178 1.2111 1.8212 1.0077 0 3.0138 0 5.8334-0.40676l28.002-4.04c3.023-0.40678 4.835-0.80431 5.8427-1.4144 0.19405 0 0.39752-0.40678 0.39752-0.80431 0.20345-0.40676 0.20345-0.81354 0.20345-1.4144v-2.6348c0.20345 0 0.39753-0.20346 1.0077-0.20346 0.6009-0.19405 1.0077-0.19405 1.2018 0 0.20345 3.8458 0.61016 6.8781 1.0169 9.0968 0.19405 2.4314 0.79502 5.4636 1.6086 9.0968-0.20346 0.21261-0.61014 0.40678-1.211 0.40678h-1.0077c-0.20345-0.80431-0.40678-1.6178-0.80431-2.8289-0.40676-1.0077-0.80428-1.6178-1.211-1.6178-0.80431-0.20345-2.8196-0.20345-5.8335 0.40678l-28.002 3.8458c-3.023 0.60091-4.835 1.0077-5.2325 1.2111-0.40675 0.39752-0.61016 1.0077-0.61016 1.8212 0 0.80427 0 1.812 0.20345 3.2264l0.61014 4.2526c0.60091 3.4298 1.6086 5.8612 3.0138 7.2756 1.6178 1.4144 4.2341 2.4221 7.4605 3.0323 0.39753 0 0.60091 0.40678 0.60091 1.0077v1.2111c0 0.40675 0 0.61015-0.20346 0.81353-0.39752-0.20345-1.4052-0.40678-3.023-0.61015-1.6086-0.39753-2.8197-0.60091-3.6239-0.80429-0.8043-0.20345-1.6086-0.40678-2.8196-0.40678-1.2111-0.20345-2.2188-0.40676-2.8196-0.40676-0.20345-1.2111-0.60091-4.6501-1.4052-10.308-0.81351-5.6578-1.4144-10.308-2.0153-13.95-0.20345-1.4145-0.40676-3.2357-0.80428-5.4544-0.40679-2.0246-0.61016-3.2357-0.61016-3.6424"/>
  <path d="m552.87 299.01c0.20346-0.20345 0.60091-0.20345 1.0077-0.20345 0.6009 0 1.0077 0.20345 1.2018 0.20345 0 0.80426 0 1.8212 0.20345 2.8289 0 1.211 0.40679 1.8212 0.60093 2.0246 1.0077 0.40678 3.023 0.61017 6.0461 0.8135l28.196 1.812c3.023 0.20346 4.835 0 5.8427-0.20345 0.40679 0 0.60091-0.19402 0.60091-0.60087 0.20345-0.40678 0.40678-1.0077 0.60093-1.4144 0-0.61018 0.21261-1.017 0.21261-1.6179 0.19405-0.40673 0.19405-0.81351 0.19405-1.0169 0.20345 0 0.61016-0.20346 1.2111-0.20346 0.60091 0.20346 1.0077 0.20346 1.2111 0.40679-0.61016 3.8458-1.0077 6.8781-1.0077 9.0968-0.20345 2.4313-0.20345 5.4636-0.20345 9.3002-0.20345 0.20346-0.6009 0.20346-1.2111 0.20346-0.6009 0-1.0077-0.20346-1.2018-0.40679 0.19405-0.60086 0-1.6086 0-2.8289-0.20345-1.0076-0.40678-1.8212-0.81354-1.8212-0.80431-0.39754-2.8104-0.60093-6.0368-0.80433l-28.196-1.8212c-3.023-0.20346-4.835-0.20346-5.4451 0.20345-0.39753 0.20346-0.60093 0.80426-0.80431 1.6178-0.19405 0.60087-0.19405 1.8212-0.39753 3.0323l-0.20344 4.4467c-0.20346 3.439 0.20344 5.8612 1.4052 7.6824 1.4144 1.8212 3.6332 3.2357 6.8504 4.4467 0.20346 0.20346 0.40676 0.40679 0.20346 1.017 0 0.39754 0 0.80426-0.20346 1.211 0 0.40679-0.19405 0.80433-0.19405 0.80433-0.40676-0.19408-1.4144-0.60093-3.023-1.2111-1.4144-0.61011-2.6255-1.211-3.2264-1.4144-0.80429-0.40679-1.812-0.61018-2.8197-1.0076-1.2111-0.40679-2.0153-0.81357-2.8196-1.017 0.20345-1.211 0.40678-4.6501 0.80431-10.308 0.40676-5.8611 0.61016-10.511 0.80428-13.95 0.20345-1.6178 0.20345-3.439 0.40678-5.6578 0-2.0246 0-3.2357 0.20345-3.6424"/>
  <path d="m560.32 353.39c0.20345 0.20346 0.40676 0.60093 0.40676 1.211 0 0.40678 0.19405 0.81357 0 1.0077 0 0.61011-0.40676 0.81351-0.81352 0.81351-0.80431-0.2034-1.6086-0.2034-2.4129 0-1.0077 0-2.0154 0.20345-3.2172 0.61017-1.0076 0.39754-2.2187 0.80432-3.2264 1.4144-1.0077 0.60093-1.812 1.4144-2.8197 2.6255-0.80429 1.0077-1.4144 2.4314-1.812 3.8366-0.20345 0.61017-0.20345 1.2204-0.20345 2.0246 0 0.61018 0 1.211 0.20345 1.8212 0 0.60093 0.20345 1.2111 0.60093 1.8212 0.20345 0.60093 0.6009 1.0077 1.0077 1.6178 0.40678 0.39753 1.0077 0.80432 1.6178 1.2111 0.79505 0.40672 1.4052 0.61011 2.4129 0.80426 0.39752 0.20346 1.0077 0.20346 1.6086 0.40678 0.61013 0 1.2111-0.20345 1.6086-0.20345 0.61013-0.20346 1.2111-0.39748 1.6086-0.60093 0.40676 0 1.0169-0.40672 1.4144-0.81351 0.61014-0.20345 1.0077-0.60093 1.4144-0.80432 0.39752-0.40672 1.0077-0.8135 1.4052-1.2203 0.60093-0.60093 1.0077-0.80426 1.4145-1.211 0.19405-0.20346 0.6009-0.60093 1.2018-1.211 0.61015-0.61018 1.0077-1.0077 1.2111-1.2111 0.20345 0 0.20345-0.20346 0.40676-0.40678 0.60093-0.60087 1.2111-1.0076 1.6086-1.4144 0.20345-0.40672 0.80431-0.80426 1.4144-1.4144 0.60093-0.60087 1.2018-1.0076 1.6086-1.211 0.39753-0.40678 1.0077-0.81357 1.6086-1.2111 0.80431-0.40672 1.4144-0.81351 1.812-1.0169 0.6009-0.20346 1.2111-0.39754 1.812-0.80426 0.8043-0.20345 1.4144-0.20345 2.0154-0.40678h2.0153c0.80429 0 1.4052 0.20345 2.2188 0.40678 1.812 0.40672 3.2172 1.211 4.6316 2.4221 1.4052 1.2204 2.4129 2.6255 3.0138 4.2434 0.81354 1.6178 1.2111 3.2357 1.4144 5.0569 0.20345 2.0246 0 3.8458-0.40676 5.4637-0.19405 1.0076-0.60093 2.0246-1.0077 2.8289-0.39753 1.0076-0.60091 1.8212-0.99844 2.4221-0.20345 0.61012-0.81353 1.4144-1.4144 2.6255-0.6009 1.0169-1.0077 2.0246-1.4144 2.6348-2.6163-0.20346-6.2402-1.017-10.668-1.8212-0.40676-0.20346-0.40676-0.60093-0.40676-1.017 0.40676-1.211 0.80428-1.812 1.2111-1.812 0.80428 0.20345 1.6086 0.20345 2.6162 0 0.80431 0 1.812-0.20346 2.8197-0.61012 1.0077-0.20345 2.0153-0.60092 2.8196-1.2111 0.81354-0.40672 1.6086-1.211 2.2187-2.0153 0.80431-0.81357 1.2018-1.8213 1.4052-2.8382 0.61015-2.0246 0.40676-3.8366-0.39753-5.4637-1.0077-1.4144-2.4129-2.4221-4.4375-2.8289-0.60091-0.19408-0.99844-0.19408-1.6086-0.19408h-1.2111c-0.39753 0-0.99843 0.19408-1.4052 0.39754-0.6009 0.20345-1.0077 0.40678-1.4052 0.61017-0.40679 0.20346-0.81355 0.40679-1.4144 0.80426-0.60093 0.40678-1.0077 0.61018-1.2111 0.81357-0.39753 0.39754-0.80431 0.60093-1.4052 1.211-0.61015 0.40679-1.0077 0.81357-1.2111 1.0077-0.20345 0.20345-0.60091 0.61017-1.2111 1.2203-0.60091 0.60093-1.0077 0.80432-1.2018 1.0076-0.40679 0.20345-0.80431 0.61017-1.4144 1.2111-0.40679 0.61018-0.80431 0.81351-1.0077 1.2203-0.39752 0.19402-0.80428 0.60093-1.4052 1.0076-0.40676 0.40679-1.0077 0.81357-1.2111 1.2111-0.40676 0.20345-0.80429 0.61018-1.4144 1.0076-0.60091 0.20345-1.0077 0.61018-1.4052 0.81357-0.60092 0.20339-1.0077 0.40672-1.6086 0.61011-0.61017 0.39754-1.2111 0.60093-1.6178 0.60093-0.6009 0.20346-1.211 0.20346-1.812 0.20346-0.60091 0.20345-1.2111 0.20345-1.812 0-0.6009 0-1.2018-0.20346-2.0154-0.20346-1.812-0.60093-3.4206-1.4144-4.835-2.6255-1.4052-1.211-2.4129-2.6255-3.2172-4.4467-0.6009-1.6178-1.0077-3.439-1.2111-5.2603-0.20345-2.0246 0-3.8366 0.40678-5.6578 0.39753-1.4144 1.0077-3.0323 1.6086-4.6501 0.80431-1.6178 1.2111-3.0323 1.6086-3.8458 0.40678-0.80425 1.0077-2.0246 2.0154-3.8366 1.6086 0 3.8273 0.19408 6.4436 0.60093 2.4221 0.20346 4.2341 0.61018 5.0384 0.61018"/>
  <path d="m555.69 405.55c3.023 1.4144 5.6393 3.439 7.6547 5.8612 2.2095 2.4313 3.8273 5.0569 4.835 8.0891 1.0077 2.8289 1.4052 5.8612 1.2018 9.3002-0.19405 3.2356-0.99843 6.4713-2.4129 9.5036-2.4221 4.8535-5.2418 9.0968-8.0614 12.739 0 0-0.80431-0.20346-2.4129-0.81351-1.812-0.39754-3.4206-0.80432-5.0291-1.2111-1.6178-0.61017-2.6255-0.8135-2.8289-1.0076-0.19406 0-0.39753-0.40678-0.39753-0.81357-0.20345-0.40672 0-0.80425 0-1.211 0.39753-0.40678 0.60093-0.61017 0.80431-0.61017 0.61013 0 1.0077 0.20345 1.4052 0.20345 0.40679 0 1.0169 0.20346 1.812 0.20346 0.81352 0 1.6178 0 2.2187-0.20346 0.80431-0.20345 1.6178-0.40678 2.4129-0.80432 1.0169-0.40672 1.8212-0.81351 2.6255-1.4237 0.80431-0.60093 1.6086-1.4144 2.4129-2.4221 0.80428-1.0077 1.6178-2.228 2.2187-3.6425 0.8043-1.4144 1.2111-2.8289 1.4052-4.4374 0.20345-1.6178 0-3.0415-0.19406-4.4559-0.40675-1.4144-0.81353-2.8289-1.6178-4.2434-0.80431-1.211-1.6086-2.6255-2.6163-3.8366-1.2111-1.0169-2.2187-2.2279-3.6239-3.2449-1.2111-0.80425-2.6162-1.812-4.2248-2.4221-2.0154-1.0077-4.0307-1.8212-6.0461-2.4222-2.2188-0.61018-4.2341-0.81351-6.4436-1.0169-2.0154 0-4.0307 0.20346-5.8427 0.81351-2.0153 0.61018-3.6239 1.4144-5.2418 2.8289-1.6086 1.211-2.8104 2.8289-3.8181 4.8535-1.6178 3.439-2.0153 6.6654-1.2111 9.5036 0.19405 1.2111 0.8043 2.4222 1.6086 3.6424 0.80431 1.211 1.4144 2.2188 2.2188 2.8289 0.60091 0.80426 1.2018 1.211 1.6086 1.6085-0.20345 0.40678-0.40679 0.81357-0.80431 1.2204-0.40676 0.40679-0.60091 0.60093-0.80429 0.60093-0.40677-0.19408-1.2111-0.80432-2.6163-1.6086-1.2111-1.0169-2.4221-2.2279-3.6332-3.2356-1.2018-1.2203-2.0154-1.8212-2.0154-2.228 0.20345-2.6255 0.40678-5.0568 1.0169-7.479 0.60092-2.4314 1.6086-5.0569 3.0138-7.8858 1.4144-3.0323 3.4298-5.667 5.8427-7.6824 2.4129-2.228 5.0384-3.8458 7.858-4.8535 2.8197-0.81357 5.6393-1.2111 8.8565-1.0077 3.023 0 6.0461 0.80432 8.8657 2.4222"/>
  <path d="m507.55 446.59c0.20345 0.20339 0.6009 0.40672 1.0077 0.61011 0.39752 0.40679 0.80428 0.80433 0.80428 1.0076-0.40676 0.61018-1.0077 1.4145-1.4052 2.4222-0.61014 1.0169-0.81352 1.6271-0.61014 2.0246 0.61014 0.81349 2.0154 2.228 4.2248 4.2526l21.355 18.194c2.2188 1.812 3.8273 3.0323 4.835 3.4391 0.40678 0.194 1.0077-0.2035 2.0154-0.8136 0.99843-0.8135 1.6086-1.4144 2.0061-2.0153 0.20346 0 0.61016 0.194 1.0169 0.6009 0.60091 0.4067 0.79503 0.8043 0.79503 1.0077-2.6162 2.6347-4.6316 5.0568-6.2402 6.8781-1.4052 1.6178-3.4206 4.0399-5.6393 7.2756-0.20345 0-0.6009-0.2035-1.0077-0.6009-0.39753-0.4068-0.60091-0.8135-0.80428-1.017 0.20345-0.2034 0.61016-0.6009 1.0077-1.211 0.20345-0.6009 0.6009-1.2111 0.80428-1.8213 0.40679-0.8042 0.40679-1.211 0.20345-1.4144-0.40675-0.8043-1.812-2.2279-4.2248-4.2434l-8.4682-7.2755h-0.39753c-4.0307 4.6501-6.2402 7.2755-6.4436 7.4789-0.40676 0.3976-2.4221 3.0324-6.0461 7.4791 0 0 0 0.2034 0.20345 0.2034l8.459 7.2756c2.2187 2.0247 3.8273 3.0323 4.835 3.4391 0.39753 0.2034 1.0077-0.2035 2.0154-0.8135 1.0077-0.8043 1.6086-1.4145 2.0061-1.8213 0.20345 0 0.61017 0.2035 1.0077 0.6102 0.61013 0.4068 0.81354 0.6102 0.81354 0.8135-2.6163 2.8289-4.6316 5.0477-6.2495 6.8689-1.4052 1.8212-3.4206 4.2433-5.6393 7.2756-0.20345 0-0.60091-0.1941-1.0077-0.6009-0.39752-0.4068-0.6009-0.6102-0.80428-1.0169 0.40676-0.3975 1.0077-1.2111 1.6086-2.2188 0.40676-1.0077 0.61014-1.8212 0.40676-2.228-0.40676-0.6009-1.812-2.0153-4.2341-4.0399l-21.346-18.194c-2.4129-2.0246-4.0307-3.2356-4.835-3.439-0.39753-0.2035-1.0077 0-2.0154 0.8042-0.80428 0.8136-1.6086 1.4145-2.0154 1.8213-0.19405 0-0.60091-0.2035-1.0077-0.6009-0.39753-0.4068-0.79506-0.6102-0.79506-1.017 2.6163-2.6255 4.8258-4.8535 6.2402-6.6654 1.6086-1.8212 3.4206-4.2526 5.6393-7.2849 0.20345 0 0.60091 0.2034 1.0077 0.6102 0.39752 0.3975 0.8043 0.6101 0.8043 0.8042-0.40678 0.6102-1.0077 1.4145-1.4144 2.4314-0.60093 1.0077-0.80431 1.812-0.60093 2.0246 0.60093 1.0077 2.0154 2.4221 4.2249 4.2434l9.8734 8.4959h0.4069c3.8273-4.456 6.0368-6.8781 6.2402-7.0815 4.0307-4.8534 6.0461-7.479 6.2402-7.8858l-0.19405-0.2034-9.8734-8.2833c-2.4129-2.0246-4.0307-3.2357-4.835-3.6424-0.39752 0-1.0077 0.2034-2.0154 1.0077-0.8043 0.6101-1.6086 1.211-2.0061 1.8211-0.20345 0-0.61016-0.2034-1.0169-0.6101-0.39752-0.3975-0.79505-0.8043-0.79505-1.0077 2.6163-2.6255 4.8258-4.8535 6.2402-6.6655 1.6086-1.8212 3.4206-4.2525 5.6393-7.4882"/>
  <path d="m468.48 516.92c-0.20345-0.2035-0.40675-0.2035-0.40675-0.2035-1.4052 1.0078-3.0138 2.0247-5.0292 3.4391-1.2111 1.0077-2.8196 2.2187-4.4282 3.6424 0 0-0.20345 0.1941 0 0.1941v0.2035l13.895 8.8934-4.2341-16.169zm0.80428-25.275c0.20346 0.4068 0.40679 0.8135 0.60093 1.211-0.39752 0.2127-1.0077 0.8136-1.6086 1.8212-0.80431 1.0169-1.0077 1.6179-1.0077 2.228 0 1.6179 0.40678 3.8366 1.0077 6.4714 5.0384 20.819 8.0614 32.948 9.2632 36.794v1.211c-0.19405 0.6102-0.19405 1.0077-0.39752 1.4145 0 0.4067-0.20346 0.8135-0.40679 0.8135-0.39752 0.3976-0.80428 0.3976-1.0077 0.3976l-33.632-21.226c-0.39753-0.4068-1.0077-0.6102-1.4052-1.0077-0.61016-0.2034-1.0077-0.6101-1.2111-0.8135-0.40679-0.2035-0.80431-0.3976-1.0077-0.601-0.39752-0.2034-0.61016-0.4067-0.80428-0.4067-0.40678-0.4068-1.0077-0.4068-1.6178-0.4068-0.80428 0-1.4052 0-1.812 0.2035-0.60091 0.2035-1.0077 0.4068-1.4052 0.6102-0.39752 0.2034-0.80431 0.3974-0.80431 0.3974-0.40676 0-0.80428-0.3974-1.0077-0.8042-0.20345 0-0.20345-0.2035-0.20345-0.2035-0.20345-0.4068-0.40676-0.6101-0.40676-0.8042 0.40676-0.2035 1.4144-0.8136 3.2264-2.0246 1.6086-1.017 3.023-2.0246 4.0307-2.6256 1.0077-0.8135 2.4129-2.0246 4.4282-3.6424 1.812-1.4145 2.8196-2.4221 2.8196-2.4221 0.40679 0 0.6009 0.194 1.0077 0.8043 0.40675 0.6101 0.6009 1.0077 0.40675 1.0077-0.40675 0.4067-1.0076 1.0169-1.6178 1.6178-0.6009 0.6101-0.80431 1.2203-1.0077 1.8212 0 0.4067 0 0.8135 0.40678 1.0077 0.20345 0.4068 1.2111 1.2203 3.023 2.4314 1.812 1.211 3.6239 2.422 5.2325 3.439l2.6162 1.6178h0.40678c0.60091-0.4067 1.2111-1.0169 2.0154-1.4144 0.6009-0.6102 1.4052-1.017 2.2188-1.6178 0.6009-0.6102 1.2018-1.017 1.4052-1.2204 2.6163-1.8212 4.4282-3.4298 6.0461-4.4467v-0.3975s0.19405-0.2035 0-0.2035c-0.61013-3.2356-1.4144-5.667-1.8212-7.4882-0.39753-1.2111-0.60091-2.0154-0.99843-3.0323-0.40678-1.0077-0.81354-1.6086-1.0077-1.812-0.20345-0.4068-0.61016-0.4068-1.2111-0.4068-0.40676 0-1.0077 0.2035-1.6086 0.4068-0.61016 0.2035-1.2111 0.601-1.6178 0.8043-0.39753 0.2035-0.80431 0.4068-0.99843 0.4068 0 0-0.40678-0.2035-0.81354-0.8135-0.19405-0.3976-0.60093-0.8044-0.60093-1.0077 0.40678-0.2035 0.80431-0.4068 1.0077-0.6102 0.40678-0.2034 0.8043-0.3975 1.0077-0.6009 0.39753-0.2034 0.60091-0.4068 1.0077-0.6101 0.39752-0.2035 0.60092-0.4068 1.0077-0.6009 0.19405-0.2035 0.6009-0.4068 1.0077-0.6102 0.39752-0.4068 0.80428-0.6101 1.2018-0.8043 0.80431-0.6101 1.4144-1.2203 2.0154-1.627 0.60091-0.601 1.211-1.2019 2.0154-1.812 0.80427-0.6102 1.2111-1.2111 1.812-1.6178 0.20345 0 0.39752 0.4067 0.80428 0.8042"/>
  <path d="m418.53 525.02c0.20345 0.2034 0.40676 0.6101 0.6009 1.0076 0.20346 0.6102 0.40679 1.0169 0.40679 1.2203-0.40679 0.1941-0.80431 0.3976-1.4144 0.8044-0.60092 0.2034-1.2018 0.6101-1.6086 1.0076-0.60093 0.6102-0.80431 1.0169-0.80431 1.2204 0 1.0076 0.80431 3.0322 2.0154 5.6577l11.685 25.876c1.2018 2.6347 2.2095 4.4467 2.8196 5.2602 0.20345 0.2035 0.6009 0.2035 1.4052 0 0.60091 0 1.4144-0.2034 2.0154-0.4067 0.6009-0.2035 1.0077-0.4068 1.4052-0.6009 0.20345 0.194 0.40676 0.6009 0.61014 1.0076 0.19405 0.6009 0.39752 1.0077 0.39752 1.2111-4.835 1.8212-7.6546 3.0323-8.6531 3.439-1.4144 0.6009-4.6316 2.2188-9.8734 4.8443-5.4359 2.6347-8.8657 4.4559-10.872 5.2603-0.80428-1.2111-1.812-2.829-3.4298-4.8536-1.6086-2.2187-2.4129-3.2356-2.6163-3.4297 0.20344-0.4068 0.6009-0.6102 1.2111-1.017 0.6009-0.2034 1.0077-0.2034 1.2018 0 1.8212 1.8212 3.4298 3.0323 5.0384 3.4391 1.4144 0.6009 3.2264 0.4068 5.0384-0.4068l5.4359-2.6255c2.4129-1.0169 3.624-1.8212 3.624-2.4221 0-0.2035-0.20346-0.4068-0.20346-0.6101 0-0.2035 0-0.4068-0.19404-0.601 0-0.2126 0-0.4068-0.20345-0.8135-0.20345-0.2034-0.20345-0.4068-0.40676-0.6102 0-0.2034-0.20345-0.3975-0.40678-0.8043-0.19406-0.4067-0.19406-0.8135-0.39753-1.0076l-5.2325-11.732c-0.20346-0.2035-0.40676-0.4068-1.0077-0.2035-0.61016 0.2035-1.2111 0.4068-2.0154 0.8135l-3.4298 1.4145c-0.6009 0.3975-0.99843 0.6102-1.4052 0.8043-0.40676 0-0.80428 0.2035-1.0077 0.4068-0.39753 0.4068-0.61016 0.4068-1.0077 0.6009-0.20345 0.2035-0.39752 0.4067-0.39752 0.6101-0.20346 0.2035-0.40678 0.4068-0.61016 0.6102 0 0.2035-0.20345 0.3975-0.20345 0.6009v2.6348c0.20345 0.3975 0.20345 0.8043 0.20345 1.4144 0.20345 0.4068 0 0.6009-0.60091 0.8043-0.61016 0.2035-1.0077 0.4068-1.4144 0.2035l-5.4359-12.333c0-0.2034 0.40676-0.6101 1.0077-0.8043 0.40678-0.2034 0.80431-0.2034 1.2111 0.1941 0.60091 0.8135 1.4052 1.627 1.812 2.0246 0.6009 0.6102 1.0077 0.8135 1.2018 1.0169 0.20345 0 0.61014 0 0.81354 0.1941 0.80428 0 2.8104-0.8043 6.2402-2.2187 3.023-1.4145 4.4282-2.4222 4.2249-2.829l-5.0292-10.918c-1.2111-2.8382-2.2188-4.6501-2.8197-5.2602-0.20345-0.4068-1.0077-0.4068-2.4221 0-1.2018 0.4067-2.2095 0.8135-3.0138 1.0076-0.20345 0-0.40678-0.3975-0.61016-1.0076-0.20346-0.4068-0.39753-0.8044-0.39753-1.0078 3.6239-1.4144 6.6377-2.6347 9.2632-3.8458 1.0077-0.3975 1.812-0.8042 2.6162-1.211 1.0077-0.6101 2.0154-1.0077 3.2264-1.6179 1.2111-0.6009 2.0061-1.0077 2.4129-1.4144"/>
  <path d="m383.48 578.62c0 1.6178 0.20345 5.8612 0.80428 12.739-0.20345 0-0.40676 0.2035-0.6009 0.2035h-0.61014c-0.20345 0-0.60093 0-1.2018-0.2035h-2.0153c-0.80431 0-1.6178 0-2.6163 0.2035l-24.979 5.6578c-1.0077 0.2035-1.812 0.4067-2.4221 0.8043-0.80428 0.2034-1.4052 0.6101-2.0061 1.0169-0.40678 0.4067-0.8043 0.6009-1.0077 0.6009-0.20346 0.2034-0.40679 0.2034-0.61017 0.2034-0.19405 0.2035-0.39752 0.2035-0.39752 0-2.6162-6.8688-4.2341-10.918-4.6316-11.926 0-0.2034 0.20346-0.2034 0.60091-0.4068 0.39753-0.2034 0.61016-0.4067 1.0077-0.4067 0.40678-0.1941 0.6009 0 0.80431 0.2034 0.61013 1.017 1.0077 2.0246 1.812 3.0323 0.61014 1.0169 1.4144 1.8212 2.0154 2.4314 0.80428 0.6101 1.6086 1.0077 2.6255 1.211 0.79505 0.4068 1.6086 0.4068 2.4129 0.2035l7.6547-1.6179-7.4513-33.965c-0.8043-3.0323-1.4145-5.0569-1.8212-5.8612-0.19405-0.2035-0.79505-0.4068-2.0061-0.4068-1.2111 0-2.2187 0.2034-2.8196 0.2034-0.20345 0-0.40676-0.4067-0.40676-1.0076-0.20345-0.6101-0.20345-1.0169-0.20345-1.2203 3.8273-0.6009 6.8504-1.0077 9.2725-1.6178 2.2095-0.3976 5.2325-1.2111 8.8565-2.4222 0.20345 0.2035 0.40678 0.6102 0.40678 1.2111 0.19405 0.4067 0.19405 0.8135 0 1.2111-0.61016 0-1.4144 0.4067-2.6255 0.8135-1.0077 0.3975-1.6086 1.0077-1.6086 1.4145-0.20346 1.0076 0 3.0322 0.80428 5.8611l7.4513 33.965 7.858-1.8212c1.6086-0.2035 2.8196-1.4145 3.8273-3.2356 1.0077-2.0154 1.4052-4.2434 1.211-6.6655 0-0.4068 0.39753-0.6102 0.60093-0.6102 0.40675-0.2034 0.80428-0.2034 1.2111-0.2034 0.39753 0.2034 0.60091 0.2034 0.80429 0.4067"/>
</svg>
